<svg xmlns="http://www.w3.org/2000/svg" viewBox="0 0 16 16">
  <title>beta</title>
  <path d="M4.89,7.19A2.86,2.86,0,1,1,7.75,4.33,2.86,2.86,0,0,1,4.89,7.19ZM4.89,3A1.36,1.36,0,1,0,6.25,4.33,1.35,1.35,0,0,0,4.89,3Z"/>
  <path d="M11.11,14.56A2.86,2.86,0,1,1,14,11.71,2.86,2.86,0,0,1,11.11,14.56Zm0-4.21a1.36,1.36,0,1,0,1.35,1.36A1.36,1.36,0,0,0,11.11,10.35Z"/>
  <path d="M4.89,15.94a.76.76,0,0,1-.75-.75V6.44a.75.75,0,0,1,1.5,0v8.75A.75.75,0,0,1,4.89,15.94Z"/>
  <path d="M4.89,3a.76.76,0,0,1-.75-.75V.81a.75.75,0,1,1,1.5,0V2.23A.75.75,0,0,1,4.89,3Z"/>
  <path d="M11.11,15.94a.75.75,0,0,1-.75-.75V13.81a.75.75,0,0,1,1.5,0v1.38A.76.76,0,0,1,11.11,15.94Z"/>
  <path d="M11.11,10.35a.75.75,0,0,1-.75-.75V.81a.75.75,0,0,1,1.5,0V9.6A.76.76,0,0,1,11.11,10.35Z"/>
</svg>
