<svg xmlns="http://www.w3.org/2000/svg" viewBox="0 0 80 80">
  <defs>
    <style>
      .a {
        fill: #4d4d4d;
      }

      .a, .b, .c, .d, .e {
        fill-rule: evenodd;
      }

      .b {
        fill: #9c0000;
      }

      .c {
        fill: #b50808;
      }

      .d {
        fill: #c61818;
      }

      .e {
        fill: #ce3129;
      }
    </style>
  </defs>
  <title>logos</title>
  <polygon class="a" points="0 66.73 17.36 66.73 18.61 51.85 2.48 48.13 0 66.73"/>
  <polygon class="a" points="3.1 45.65 18.61 49.37 22.33 36.34 9.3 29.52 3.1 45.65"/>
  <polygon class="a" points="10.54 27.04 22.95 33.86 32.87 27.04 23.57 16.5 10.54 27.04"/>
  <polygon class="a" points="80 66.73 62.64 66.73 61.4 51.85 77.52 48.13 80 66.73"/>
  <polygon class="a" points="76.9 45.65 61.4 49.37 57.67 36.34 70.7 29.52 76.9 45.65"/>
  <polygon class="a" points="69.46 27.04 57.05 33.86 47.13 27.04 56.44 16.5 69.46 27.04"/>
  <polygon class="a" points="26.67 14.64 35.97 25.8 44.65 25.8 52.71 14.64 44.65 12.16 35.75 12.16 26.67 14.64"/>
  <polygon class="b" points="0 66.73 17.36 66.73 18.61 51.85 2.48 48.13 0 66.73"/>
  <polygon class="c" points="3.1 45.65 18.61 49.37 22.33 36.34 9.3 29.52 3.1 45.65"/>
  <polygon class="d" points="10.54 27.04 22.95 33.86 32.87 27.04 23.57 16.5 10.54 27.04"/>
  <polygon class="b" points="80 66.73 62.64 66.73 61.4 51.85 77.52 48.13 80 66.73"/>
  <polygon class="c" points="76.9 45.65 61.4 49.37 57.67 36.34 70.7 29.52 76.9 45.65"/>
  <polygon class="d" points="69.46 27.04 57.05 33.86 47.13 27.04 56.44 16.5 69.46 27.04"/>
  <polygon class="e" points="26.67 14.64 35.97 25.8 44.65 25.8 52.71 14.64 44.65 12.16 35.75 12.16 26.67 14.64"/>
</svg>
