<svg xmlns="http://www.w3.org/2000/svg" viewBox="0 0 80 80">
  <defs>
    <style>
      .a {
        fill: #fc6d26;
      }

      .b {
        fill: #e24329;
      }

      .c {
        fill: #fca326;
      }
    </style>
  </defs>
  <title>logos</title>
  <g>
    <path class="a" d="M79.85,45.29,75.37,31.52,66.5,4.2a1.53,1.53,0,0,0-2.9,0L54.73,31.5H25.27L16.4,4.2a1.54,1.54,0,0,0-1.94-1,1.51,1.51,0,0,0-1,1L4.64,31.5.16,45.29a3,3,0,0,0,1.1,3.41L40,76.85,78.73,48.7a3,3,0,0,0,1.12-3.41"/>
    <path class="b" d="M40,76.83h0L54.73,31.5H25.28Z"/>
    <path class="a" d="M40,76.83,25.27,31.5H4.65Z"/>
    <path class="c" d="M4.63,31.51h0L.15,45.29a3.06,3.06,0,0,0,1.1,3.41L40,76.85Z"/>
    <path class="b" d="M4.64,31.51H25.28L16.4,4.21a1.54,1.54,0,0,0-2.91,0Z"/>
    <path class="a" d="M40,76.83,54.73,31.5H75.38Z"/>
    <path class="c" d="M75.37,31.51h0l4.48,13.78a3.05,3.05,0,0,1-1.11,3.41L40,76.83,75.36,31.51Z"/>
    <path class="b" d="M75.38,31.51H54.74L63.6,4.21a1.53,1.53,0,0,1,2.91,0l8.87,27.3Z"/>
  </g>
</svg>
