<?xml version="1.0" encoding="utf-8"?>
<!-- Generator: Adobe Illustrator 23.1.1, SVG Export Plug-In . SVG Version: 6.00 Build 0)  -->
<svg version="1.1" id="Layer_1" xmlns="http://www.w3.org/2000/svg" xmlns:xlink="http://www.w3.org/1999/xlink" x="0px" y="0px"
	 viewBox="0 0 600 132.6" style="enable-background:new 0 0 600 132.6;" xml:space="preserve"><style>svg{fill:#302839;}</style>
<path d="M372,85.2l-44.5-57.4h-11.1v77h11.2v-59l45.7,59h9.8v-77H372V85.2z M260,70.9h39.8v-10h-39.9V37.8h45v-10h-56.4v77h57v-10
	h-45.6L260,70.9z M213.1,61.2c-15.6-3.7-19.8-6.7-19.8-13.8c0-6.5,5.7-10.8,14.2-10.8c7.1,0,14.1,2.5,21.3,7.7l6.1-8.5
	c-8-6.1-16.6-9-27.1-9c-15.2,0-25.9,9-25.9,21.9c0,13.8,9,18.6,25.5,22.6c14.5,3.4,18.9,6.5,18.9,13.5s-6,11.4-15.4,11.4
	c-9.1,0-16.8-3-25-9.8l-6.8,8.1c8.7,7.5,19.9,11.6,31.4,11.6c16.5,0,27.1-8.9,27.1-22.6C237.7,71.7,230.8,65.4,213.1,61.2
	L213.1,61.2z M587,27.8l-23.2,36.3l-23-36.3h-13.4l30.5,46.5v30.5h11.6V74L600,27.8H587z M392.3,38.2h25.2v66.6h11.6V38.2h25.2V27.8
	h-62L392.3,38.2z M507.8,74.7c11.6-3.2,18-11.4,18-23c0-14.8-10.8-24-28.3-24h-34.1v77h11.5V77.1h19.4l19.5,27.7h13.4l-21.1-29.6
	L507.8,74.7z M474.8,67.2V38h21.6c11.3,0,17.7,5.3,17.7,14.6c0,8.9-6.9,14.7-17.6,14.7L474.8,67.2z M86.3,6.9
	c-3.8-6.6-12.2-8.8-18.8-5c-2.1,1.2-3.8,2.9-5,5l-19.6,34l5,2.9c27.9,16.1,45.9,45.2,47.8,77.4H82C80,93.8,64.7,69.2,41,55.6l-5-2.9
	L17.7,84.4l5,2.9C35,94.5,43.3,107,45.2,121.1H13.8c-1.3,0-2.3-1-2.3-2.2c0-0.4,0.1-0.8,0.3-1.2l8.8-15.2c-3-2.5-6.3-4.4-10-5.7
	l-8.7,15.1c-3.8,6.6-1.5,15,5,18.8c2.1,1.2,4.5,1.8,6.9,1.8H57v-5.7c0-18.4-8.8-35.6-23.7-46.4l6.9-11.9
	c19.1,13.2,30.5,35,30.6,58.3v5.7h36.6v-5.7c0-36.3-18.4-70.2-48.8-90.1l13.9-24.1c0.6-1.1,2-1.5,3.1-0.8c0.3,0.2,0.6,0.5,0.8,0.8
	L137,117.7c0.6,1.1,0.3,2.5-0.8,3.1c-0.4,0.2-0.8,0.3-1.2,0.3h-14.2c0.2,3.8,0.2,7.7,0,11.5h14.2c7.6,0,13.7-6.2,13.7-13.8
	c0-2.4-0.6-4.8-1.8-6.9L86.3,6.9z"/>
</svg>
