<?xml version="1.0" encoding="utf-8"?>
<svg version="1.1" xmlns="http://www.w3.org/2000/svg" xmlns:xlink="http://www.w3.org/1999/xlink" x="0px" y="0px"
	 viewBox="0 0 291 144" style="enable-background:new 0 0 291 144;" xml:space="preserve">
<style type="text/css">
	.st0{fill:#EDE7F5;}
	.st1{fill:#5A4A79;}
	.st2{fill:none;stroke:#FF7738;stroke-width:1.5;}
	.st3{fill:none;stroke:#3E2C73;stroke-width:0.75;}
	.st4{fill:#FF7738;}
	.st5{fill:#3E2C73;}
	.st6{fill:none;stroke:#3E2C73;}
	.tracer {
		animation: backforth 6s infinite ease-in-out; 
	}
	@keyframes backforth {
		0% {
			transform: translateX(0px);
		}
		25% {
			transform: translateX(50px);
		}
		50% {
			transform: translateX(0px);
		}
		75% {
			transform: translateX(-20px);
		}
		100% {
			transform: translateX(0px);
		}
	}
</style>
<g id="background">
	<path class="st0" d="M82,103l209,0v7l-209,0V103z"/>
	<path class="st0" d="M82,117l209,0v7l-209,0V117z"/>
	<path class="st0" d="M82,89l209,0v7L82,96V89z"/>
	<path class="st0" d="M82,75l209,0v7L82,82V75z"/>
	<path class="st0" d="M82,60l209,0v7L82,67V60z"/>
	<path class="st0" d="M82,46l209,0v7L82,53V46z"/>
	<path class="st0" d="M82,32l209,0v7L82,39V32z"/>
	<path class="st0" d="M82,18l209,0v7L82,25V18z"/>
	<path class="st1" d="M11,21h43c0.6,0,1,0.4,1,1l0,0c0,0.6-0.4,1-1,1H11c-0.6,0-1-0.4-1-1l0,0C10,21.4,10.4,21,11,21z"/>
	<path class="st1" d="M22,35h15c0.6,0,1,0.4,1,1l0,0c0,0.6-0.4,1-1,1H22c-0.6,0-1-0.4-1-1l0,0C21,35.4,21.4,35,22,35z"/>
	<path class="st1" d="M22,42h33c0.6,0,1,0.4,1,1l0,0c0,0.6-0.4,1-1,1H22c-0.6,0-1-0.4-1-1l0,0C21,42.4,21.4,42,22,42z"/>
	<path class="st1" d="M22,49h41c0.6,0,1,0.4,1,1l0,0c0,0.6-0.4,1-1,1H22c-0.6,0-1-0.4-1-1l0,0C21,49.4,21.4,49,22,49z"/>
	<path class="st1" d="M22,56h28c0.6,0,1,0.4,1,1l0,0c0,0.6-0.4,1-1,1H22c-0.6,0-1-0.4-1-1l0,0C21,56.4,21.4,56,22,56z"/>
	<path class="st1" d="M22,63h41c0.6,0,1,0.4,1,1l0,0c0,0.6-0.4,1-1,1H22c-0.6,0-1-0.4-1-1l0,0C21,63.4,21.4,63,22,63z"/>
	<path class="st1" d="M22,28h37c0.6,0,1,0.4,1,1l0,0c0,0.6-0.4,1-1,1H22c-0.6,0-1-0.4-1-1l0,0C21,28.4,21.4,28,22,28z"/>
	<path class="st1" d="M22,70h32c0.6,0,1,0.4,1,1l0,0c0,0.6-0.4,1-1,1H22c-0.6,0-1-0.4-1-1l0,0C21,70.4,21.4,70,22,70z"/>
	<path class="st1" d="M34,84h17c0.6,0,1,0.4,1,1l0,0c0,0.6-0.4,1-1,1H34c-0.6,0-1-0.4-1-1l0,0C33,84.4,33.4,84,34,84z"/>
	<path class="st1" d="M34,91h33c0.6,0,1,0.4,1,1l0,0c0,0.6-0.4,1-1,1H34c-0.6,0-1-0.4-1-1l0,0C33,91.4,33.4,91,34,91z"/>
	<path class="st1" d="M34,98h37c0.6,0,1,0.4,1,1l0,0c0,0.6-0.4,1-1,1H34c-0.6,0-1-0.4-1-1l0,0C33,98.4,33.4,98,34,98z"/>
	<path class="st1" d="M34,105h28c0.6,0,1,0.4,1,1l0,0c0,0.6-0.4,1-1,1H34c-0.6,0-1-0.4-1-1l0,0C33,105.4,33.4,105,34,105z"/>
	<path class="st1" d="M34,112h41c0.6,0,1,0.4,1,1l0,0c0,0.6-0.4,1-1,1H34c-0.6,0-1-0.4-1-1l0,0C33,112.4,33.4,112,34,112z"/>
	<path class="st1" d="M34,119h28c0.6,0,1,0.4,1,1l0,0c0,0.6-0.4,1-1,1H34c-0.6,0-1-0.4-1-1l0,0C33,119.4,33.4,119,34,119z"/>
	<path class="st1" d="M22,77h37c0.6,0,1,0.4,1,1l0,0c0,0.6-0.4,1-1,1H22c-0.6,0-1-0.4-1-1l0,0C21,77.4,21.4,77,22,77z"/>
	<path class="st2" d="M289,134l-1-124H1.7L1,133.1L289,134z"/>
	<rect x="82" y="18" class="st1" width="8" height="7"/>
	<rect x="90" y="25" class="st1" width="16" height="7"/>
	<rect x="139" y="39" class="st1" width="7" height="7"/>
	<rect x="146" y="46" class="st1" width="2" height="7"/>
	<rect x="148" y="53" class="st1" width="12" height="7"/>
	<rect x="202" y="68" class="st1" width="10" height="7"/>
	<rect x="212" y="75" class="st1" width="4" height="7"/>
	<rect x="216" y="82" class="st1" width="20" height="7"/>
	<rect x="236" y="89" class="st1" width="2" height="7"/>
	<rect x="238" y="96" class="st1" width="2" height="7"/>
	<rect x="240" y="103" class="st1" width="26" height="7"/>
	<rect x="266" y="110" class="st1" width="5" height="7"/>
	<rect x="271" y="117" class="st1" width="14" height="7"/>
	<path class="st3" d="M3.7,130.9L3,12l283.5,0.2L287,132L3.7,130.9z"/>
	<line class="st3" x1="81.4" y1="12" x2="81.4" y2="131"/>
</g>
<g id="spans">
	<rect x="106" y="32" class="st4" width="33" height="7"/>
	<rect x="160" y="60" class="st4" width="42" height="7"/>
</g>
<g id="tracer" class="tracer">
	<circle class="st5" cx="179.5" cy="3.5" r="3.5"/>
	<circle class="st5" cx="179.5" cy="140.5" r="3.5"/>
	<line class="st6" x1="179.5" y1="4" x2="179.5" y2="141"/>
</g>
</svg>
