<svg width="312" height="164" viewBox="0 0 312 164" fill="none" xmlns="http://www.w3.org/2000/svg">
<path d="M274.819 68.923L275.355 122.5L2.95969 119.887L1 65.0161L274.819 68.923Z" stroke="#FF7738" stroke-width="1.5"/>
<path d="M4.28137 67.629L3.6129 119.118L272.751 119.887L274.048 68.0153L4.28137 67.629Z" fill="white" stroke="#3E2C73" stroke-width="0.75"/>
<rect x="215.258" y="85.9193" width="41.8064" height="14.371" rx="1" fill="#3E2C73"/>
<rect x="57.1774" y="95.0645" width="52.2581" height="2" rx="1" fill="#C1B2DD"/>
<rect x="114.661" y="95.0645" width="11.7581" height="2" rx="1" fill="#C1B2DD"/>
<rect x="57.629" y="88" width="58" height="3" rx="1.5" fill="#3E2C73"/>
<rect x="118.629" y="88" width="53" height="3" rx="1.5" fill="#3E2C73"/>
<circle cx="31.0484" cy="92.4516" r="11.7581" fill="#FF7738"/>
<rect x="229.629" y="92.4516" width="14.371" height="1.5" rx="0.75" fill="white"/>
<circle cx="32.3548" cy="93.7581" r="11.3831" stroke="#3E2C73" stroke-width="0.75"/>
<path d="M310.093 109.423L310.629 163L38.2339 160.387L36.2742 105.516L310.093 109.423Z" stroke="#FF7738" stroke-width="1.5"/>
<path d="M39.5555 108.129L38.8871 159.618L308.025 160.387L309.323 108.515L39.5555 108.129Z" fill="white" stroke="#3E2C73" stroke-width="0.75"/>
<rect x="250.532" y="126.419" width="41.8064" height="14.371" rx="1" fill="#3E2C73"/>
<rect x="92.4516" y="135.565" width="13.0645" height="2" rx="1" fill="#C1B2DD"/>
<rect x="109.435" y="135.565" width="49.6452" height="2" rx="1" fill="#C1B2DD"/>
<rect x="264.903" y="132.952" width="14.371" height="1.5" rx="0.75" fill="white"/>
<rect x="92.629" y="128" width="74" height="3" rx="1.5" fill="#3E2C73"/>
<rect x="170.629" y="128" width="10" height="3" rx="1.5" fill="#3E2C73"/>
<circle cx="66.3225" cy="132.952" r="11.7581" fill="#5A4A79"/>
<circle cx="67.629" cy="134.258" r="11.3831" stroke="#3E2C73" stroke-width="0.75"/>
<path d="M310.093 4.90693L310.629 58.4839L38.2339 55.871L36.2742 1.00001L310.093 4.90693Z" stroke="#FF7738" stroke-width="1.5"/>
<path d="M39.5555 3.61291L38.8871 55.1022L308.025 55.871L309.323 3.99917L39.5555 3.61291Z" fill="white" stroke="#3E2C73" stroke-width="0.75"/>
<rect x="250.532" y="21.9032" width="41.8064" height="14.371" rx="1" fill="#3E2C73"/>
<rect x="92.4516" y="31.0484" width="13.0645" height="2" rx="1" fill="#C1B2DD"/>
<rect x="109.435" y="31.0484" width="49.6452" height="2" rx="1" fill="#C1B2DD"/>
<rect x="264.903" y="28.4355" width="14.371" height="1.5" rx="0.75" fill="white"/>
<rect x="92.629" y="24" width="72" height="3" rx="1.5" fill="#3E2C73"/>
<rect x="167.629" y="24" width="9" height="3" rx="1.5" fill="#3E2C73"/>
<circle cx="66.3225" cy="28.4355" r="11.7581" fill="#EDE7F5"/>
<circle cx="67.629" cy="29.742" r="11.3831" stroke="#3E2C73" stroke-width="0.75"/>
</svg>
