<?xml version="1.0" encoding="utf-8"?>
<!-- Generator: Adobe Illustrator 24.2.3, SVG Export Plug-In . SVG Version: 6.00 Build 0)  -->
<svg version="1.1" xmlns="http://www.w3.org/2000/svg" xmlns:xlink="http://www.w3.org/1999/xlink" x="0px" y="0px"
	 viewBox="0 0 288 158" style="enable-background:new 0 0 288 158;" xml:space="preserve">
<style type="text/css">
	.st0{fill:#FFFFFF;}
	.st1{fill:#EDE7F5;}
	.st2{fill:#C1B2DD;}
	.st3{fill:#3E2C73;}
	.st4{fill:none;stroke:#3E2C73;stroke-width:0.75;}
	.st5{fill:none;stroke:#FF7738;stroke-width:1.5;}
	.st6{fill:#5A4A79;}
	.st7{fill:#FF7738;}
</style>
<g id="card_x5F_1">
	<path class="st0" d="M219,109.2L218.1,5c0-1.1-0.9-2-2-2H7.1c-1.1,0-2,0.9-2,2L4,110c0,1.1,0.9,2,2,2l211-0.8
		C218.1,111.2,219,110.3,219,109.2z"/>
	<path class="st1" d="M0,34h224v52H0V34z"/>
	<path class="st2" d="M200,12c4.4,0,8,3.6,8,8s-3.6,8-8,8s-8-3.6-8-8S195.6,12,200,12z"/>
	<path class="st3" d="M41.5,18h102c0.8,0,1.5,0.7,1.5,1.5s-0.7,1.5-1.5,1.5h-102c-0.8,0-1.5-0.7-1.5-1.5S40.7,18,41.5,18z"/>
	<path class="st2" d="M19,99h28c0.6,0,1,0.4,1,1s-0.4,1-1,1H19c-0.6,0-1-0.4-1-1S18.4,99,19,99z M54,99h68c0.6,0,1,0.4,1,1
		s-0.4,1-1,1H54c-0.6,0-1-0.4-1-1S53.4,99,54,99z"/>
	<path class="st4" d="M219,109.3L218.1,4.9c0-1.1-0.9-2-2-2H7.1c-1.1,0-2,0.9-2,2L4,110.1c0,1.1,0.9,2,2,2l211-0.8
		C218.1,111.3,219,110.4,219,109.3z"/>
	<path class="st5" d="M3,109.4L2,3c0-1.1,0.9-2,2-2h214.4c1.1,0,2,0.9,2,2l0.5,109c0,1.1-0.9,2-2,2L5,111.4
		C3.9,111.4,3,110.5,3,109.4z"/>
	<path class="st6" d="M19,13h10c1.1,0,2,0.9,2,2v10c0,1.1-0.9,2-2,2H19c-1.1,0-2-0.9-2-2V15C17,13.9,17.9,13,19,13z"/>
	<path class="st4" d="M17,11.4h10c0.9,0,1.6,0.7,1.6,1.6v10c0,0.9-0.7,1.6-1.6,1.6H17c-0.9,0-1.6-0.7-1.6-1.6V13
		C15.4,12.1,16.1,11.4,17,11.4z M198,11.4c4.2,0,7.6,3.4,7.6,7.6s-3.4,7.6-7.6,7.6c-4.2,0-7.6-3.4-7.6-7.6S193.8,11.4,198,11.4z"/>
	<path class="st1" d="M189,12c4.4,0,8,3.6,8,8s-3.6,8-8,8s-8-3.6-8-8S184.6,12,189,12z"/>
	<path class="st4" d="M187,11.4c4.2,0,7.6,3.4,7.6,7.6s-3.4,7.6-7.6,7.6c-4.2,0-7.6-3.4-7.6-7.6S182.8,11.4,187,11.4z"/>
</g>
<g id="bars_x5F_a">
	<g id="bar_x5F_b">
		<path class="st3" d="M80,75h8v13h-8V75z M28,80h8v8h-8V80z M54,75h8v13h-8V75z M106,84h8v4h-8V84z M132,80h8v8h-8V80z M158,80h8v8
			h-8V80z M184,80h8v8h-8V80z"/>
	</g>
</g>
<g id="bars_x5F_b">
	<path class="st3" d="M67,78h8v10h-8V78z M93,78h8v10h-8V78z M41,78h8v10h-8V78z M119,82h8v6h-8V82z M15,84h8v4h-8V84z M145,82h8v6
		h-8V82z M171,82h8v6h-8V82z M197,84h8v4h-8V84z"/>
</g>
<g id="card_x5F_2_1_">
	<g id="card_x5F_2">
		<path class="st0" d="M283,152.2L282.1,48c0-1.1-0.9-2-2-2h-209c-1.1,0-2,0.9-2,2L68,153c0,1.1,0.9,2,2,2l211-0.8
			C282.1,154.2,283,153.3,283,152.2z"/>
		<path class="st1" d="M64,77h224v52H64V77z"/>
		<path class="st2" d="M264,55c4.4,0,8,3.6,8,8s-3.6,8-8,8s-8-3.6-8-8S259.6,55,264,55z"/>
		<path class="st3" d="M105.5,61h102c0.8,0,1.5,0.7,1.5,1.5s-0.7,1.5-1.5,1.5h-102c-0.8,0-1.5-0.7-1.5-1.5S104.7,61,105.5,61z"/>
		<path class="st2" d="M83,142h28c0.6,0,1,0.4,1,1s-0.4,1-1,1H83c-0.6,0-1-0.4-1-1S82.4,142,83,142z M118,142h68c0.6,0,1,0.4,1,1
			s-0.4,1-1,1h-68c-0.6,0-1-0.4-1-1S117.4,142,118,142z"/>
		<path class="st4" d="M283,152.3l-0.9-104.4c0-1.1-0.9-2-2-2h-209c-1.1,0-2,0.9-2,2L68,153.1c0,1.1,0.9,2,2,2l211-0.8
			C282.1,154.3,283,153.4,283,152.3z"/>
		<path class="st5" d="M67,152.4L66,46c0-1.1,0.9-2,2-2h214.4c1.1,0,2,0.9,2,2l0.5,109c0,1.1-0.9,2-2,2l-214-2.6
			C67.9,154.4,67,153.5,67,152.4z"/>
		<path class="st7" d="M83,56h10c1.1,0,2,0.9,2,2v10c0,1.1-0.9,2-2,2H83c-1.1,0-2-0.9-2-2V58C81,56.9,81.9,56,83,56z"/>
		<path class="st4" d="M81,54.4h10c0.9,0,1.6,0.7,1.6,1.6v10c0,0.9-0.7,1.6-1.6,1.6H81c-0.9,0-1.6-0.7-1.6-1.6V56
			C79.4,55.1,80.1,54.4,81,54.4z M262,54.4c4.2,0,7.6,3.4,7.6,7.6s-3.4,7.6-7.6,7.6s-7.6-3.4-7.6-7.6S257.8,54.4,262,54.4z"/>
	</g>
</g>
<g id="bars_x5F_c">
	<g id="bar_x5F_d">
		<path class="st3" d="M262,127h8v4h-8V127z M132,99h8v32h-8V99z M158,99h8v32h-8V99z M106,110h8v21h-8V110z M184,86h8v45h-8V86z
			 M80,116h8v15h-8V116z M210,105h8v26h-8V105z M236,111h8v20h-8V111z"/>
	</g>
</g>
<g id="bars_x5F_d">
	<g id="bar_x5F_c">
		<path class="st3" d="M145,84h8v47h-8V84z M93,123h8v8h-8V123z M119,113h8v18h-8V113z M171,110h8v21h-8V110z M197,113h8v18h-8V113z
			 M223,123h8v8h-8V123z M249,107h8v24h-8V107z"/>
	</g>
</g>
</svg>
