<svg width="290" height="195" viewBox="0 0 290 195" fill="none" xmlns="http://www.w3.org/2000/svg">
<path d="M0 1H42V194H0V1Z" fill="#3E2C73"/>
<path d="M43 0.702128L286.991 0.0085521C288.652 0.00383284 290 1.34835 290 3.00854V32.2979L43 33V0.702128Z" fill="#C1B2DD"/>
<path d="M223.077 104.8C223.077 103.99 223.734 103.333 224.544 103.333H239.436V106.267H224.544C223.734 106.267 223.077 105.61 223.077 104.8Z" fill="#3E2C73"/>
<rect width="12.641" height="2.93333" transform="matrix(-1 0 0 1 252.077 103.333)" fill="#C1B2DD"/>
<rect x="252.077" y="103.333" width="5.94872" height="2.93333" fill="#EDE7F5"/>
<path d="M223.077 115.067C223.077 114.257 223.734 113.6 224.544 113.6H249.103V116.533H224.544C223.734 116.533 223.077 115.877 223.077 115.067Z" fill="#3E2C73"/>
<rect width="13.3846" height="2.93333" transform="matrix(-1 0 0 1 262.487 113.6)" fill="#C1B2DD"/>
<rect x="262.487" y="113.6" width="5.20513" height="2.93333" fill="#EDE7F5"/>
<path d="M223.077 125.333C223.077 124.523 223.734 123.867 224.544 123.867H249.103V126.8H224.544C223.734 126.8 223.077 126.143 223.077 125.333Z" fill="#3E2C73"/>
<rect width="6.69231" height="2.93333" transform="matrix(-1 0 0 1 255.795 123.867)" fill="#C1B2DD"/>
<rect x="255.795" y="123.867" width="6.69231" height="2.93333" fill="#EDE7F5"/>
<path d="M223.077 135.6C223.077 134.79 223.734 134.133 224.544 134.133H249.103V137.067H224.544C223.734 137.067 223.077 136.41 223.077 135.6Z" fill="#3E2C73"/>
<rect width="13.3846" height="2.93333" transform="matrix(-1 0 0 1 262.487 134.133)" fill="#C1B2DD"/>
<rect x="262.487" y="134.133" width="5.20513" height="2.93333" fill="#EDE7F5"/>
<path d="M223.077 145.867C223.077 145.057 223.734 144.4 224.544 144.4H232V147.333H224.544C223.734 147.333 223.077 146.677 223.077 145.867Z" fill="#3E2C73"/>
<rect width="6.69231" height="2.93333" transform="matrix(-1 0 0 1 238.692 144.4)" fill="#C1B2DD"/>
<rect x="238.692" y="144.4" width="23.7949" height="2.93333" fill="#EDE7F5"/>
<path d="M54.375 45C54.375 45.3452 54.6548 45.625 55 45.625H275C275.345 45.625 275.625 45.3452 275.625 45V41C275.625 40.6548 275.345 40.375 275 40.375H55C54.6548 40.375 54.375 40.6548 54.375 41V45Z" stroke="#3E2C73" stroke-width="0.75"/>
<path d="M57.8132 87.3036L54.7707 88.0203C54.3191 88.1267 54 88.5298 54 88.9937V95H276V81.1343C276 80.4027 275.24 79.9187 274.577 80.2281L271.172 81.8167C271.116 81.8431 271.057 81.8642 270.996 81.8796L266.983 82.9005C266.772 82.9544 266.548 82.9374 266.347 82.852L262.396 81.1767C262.284 81.1293 262.164 81.1027 262.043 81.0981L257.796 80.938L253.897 81.085C253.565 81.0975 253.248 80.9444 253.052 80.6763L249.249 75.4804C249.053 75.2124 248.736 75.0593 248.404 75.0718L244.505 75.2188L240.075 75.2604L236.266 75.44C235.885 75.4579 235.528 75.2581 235.343 74.9248L231.362 67.7223C231.266 67.5474 231.119 67.4055 230.941 67.3148L227.186 65.4043C226.93 65.2742 226.743 65.0404 226.671 64.7625L223.514 52.5044C223.245 51.4613 221.744 51.5219 221.56 52.5833L218.023 73.0107C217.961 73.3687 217.71 73.6648 217.367 73.7844L213.689 75.0667C213.559 75.1119 213.422 75.1299 213.285 75.1196L209.568 74.8394C209.25 74.8154 208.94 74.9443 208.733 75.1863L205.084 79.4496C204.812 79.7672 204.372 79.8822 203.979 79.738L200.451 78.4415C200.288 78.3814 200.111 78.3651 199.939 78.3942L195.944 79.0719C195.83 79.0913 195.72 79.1303 195.619 79.1873L191.341 81.606L187.092 83.5676C186.972 83.623 186.843 83.6541 186.711 83.659L182.569 83.8152C182.51 83.8174 182.451 83.8143 182.392 83.806L178.706 83.2851C178.308 83.2288 177.983 82.9401 177.879 82.5519L173.619 66.5355L170.531 59.2595C170.14 58.3386 168.789 58.4989 168.624 59.4857L164.999 81.2085C164.883 81.902 164.107 82.2627 163.502 81.9038L160.631 80.199C160.435 80.0829 160.206 80.0369 159.98 80.0688L155.898 80.6458L151.468 80.9798L147.275 81.0588C147.119 81.0617 146.964 81.028 146.823 80.9603L143.114 79.1777C142.799 79.0265 142.428 79.0504 142.136 79.2407L138.319 81.7222C138.225 81.7834 138.121 81.8283 138.012 81.8551L134.012 82.8351C133.838 82.8776 133.656 82.8728 133.485 82.8212L129.434 81.5999C129.356 81.5762 129.275 81.5622 129.193 81.5584L124.989 81.3603C124.92 81.3571 124.851 81.361 124.784 81.3718L121.348 81.9222C120.841 82.0034 120.355 81.6876 120.223 81.1914L117.249 69.991C116.99 69.0133 115.609 68.9951 115.324 69.9656L111.801 81.9457C111.678 82.3646 111.298 82.6552 110.861 82.6634L107.285 82.7309C107.205 82.7324 107.124 82.7242 107.046 82.7064L102.861 81.7601C102.777 81.7409 102.69 81.7329 102.603 81.7361L98.3035 81.8981L93.982 81.5724C93.9096 81.567 93.838 81.5536 93.7685 81.5327L89.7671 80.3262C89.5568 80.2627 89.3314 80.2703 89.1258 80.3478L85.0813 81.8722C85.0354 81.8895 84.9884 81.9034 84.9405 81.9137L80.5821 82.8584L76.2626 83.6317C76.1889 83.6448 76.1141 83.6497 76.0393 83.6462L71.9323 83.4527C71.7932 83.4462 71.6571 83.4107 71.5326 83.3485L67.369 81.2692C67.3171 81.2433 67.2631 81.2219 67.2076 81.2054L61.1796 79.4104C60.62 79.2438 60.0373 79.59 59.916 80.1611L58.5621 86.5379C58.4817 86.9166 58.1899 87.2148 57.8132 87.3036Z" fill="#E1567C"/>
<path d="M53 104C53 102.895 53.8954 102 55 102H211C212.105 102 213 102.895 213 104V110H53V104Z" fill="#C1B2DD"/>
<path d="M54 13C54 12.4477 54.4477 12 55 12H71C71.5523 12 72 12.4477 72 13C72 13.5523 71.5523 14 71 14H55C54.4477 14 54 13.5523 54 13Z" fill="#5A4A79"/>
<path d="M78 13C78 12.4477 78.4477 12 79 12H95C95.5523 12 96 12.4477 96 13C96 13.5523 95.5523 14 95 14H79C78.4477 14 78 13.5523 78 13Z" fill="#5A4A79"/>
<path d="M17 24.5C17 24.2239 17.2239 24 17.5 24H35.5C35.7761 24 36 24.2239 36 24.5C36 24.7761 35.7761 25 35.5 25H17.5C17.2239 25 17 24.7761 17 24.5Z" fill="#C1B2DD"/>
<path d="M17 13C17 12.4477 17.4477 12 18 12H35C35.5523 12 36 12.4477 36 13C36 13.5523 35.5523 14 35 14H18C17.4477 14 17 13.5523 17 13Z" fill="#C1B2DD"/>
<path d="M17 30.5C17 30.2239 17.2239 30 17.5 30H35.5C35.7761 30 36 30.2239 36 30.5C36 30.7761 35.7761 31 35.5 31H17.5C17.2239 31 17 30.7761 17 30.5Z" fill="#C1B2DD"/>
<path d="M17 36.5C17 36.2239 17.2239 36 17.5 36H35.5C35.7761 36 36 36.2239 36 36.5C36 36.7761 35.7761 37 35.5 37H17.5C17.2239 37 17 36.7761 17 36.5Z" fill="#C1B2DD"/>
<path d="M17 42.5C17 42.2239 17.2239 42 17.5 42H35.5C35.7761 42 36 42.2239 36 42.5C36 42.7761 35.7761 43 35.5 43H17.5C17.2239 43 17 42.7761 17 42.5Z" fill="#C1B2DD"/>
<path d="M17 48.5C17 48.2239 17.2239 48 17.5 48H35.5C35.7761 48 36 48.2239 36 48.5C36 48.7761 35.7761 49 35.5 49H17.5C17.2239 49 17 48.7761 17 48.5Z" fill="#C1B2DD"/>
<path d="M17 54.5C17 54.2239 17.2239 54 17.5 54H35.5C35.7761 54 36 54.2239 36 54.5C36 54.7761 35.7761 55 35.5 55H17.5C17.2239 55 17 54.7761 17 54.5Z" fill="#C1B2DD"/>
<path d="M17 64.5C17 64.2239 17.2239 64 17.5 64H35.5C35.7761 64 36 64.2239 36 64.5C36 64.7761 35.7761 65 35.5 65H17.5C17.2239 65 17 64.7761 17 64.5Z" fill="#C1B2DD"/>
<path d="M17 70.5C17 70.2239 17.2239 70 17.5 70H35.5C35.7761 70 36 70.2239 36 70.5C36 70.7761 35.7761 71 35.5 71H17.5C17.2239 71 17 70.7761 17 70.5Z" fill="#C1B2DD"/>
<path d="M17 76.5C17 76.2239 17.2239 76 17.5 76H35.5C35.7761 76 36 76.2239 36 76.5C36 76.7761 35.7761 77 35.5 77H17.5C17.2239 77 17 76.7761 17 76.5Z" fill="#C1B2DD"/>
<path d="M17 87.5C17 87.2239 17.2239 87 17.5 87H35.5C35.7761 87 36 87.2239 36 87.5C36 87.7761 35.7761 88 35.5 88H17.5C17.2239 88 17 87.7761 17 87.5Z" fill="#C1B2DD"/>
<path d="M66 116.5C66 116.224 66.2239 116 66.5 116H106.5C106.776 116 107 116.224 107 116.5C107 116.776 106.776 117 106.5 117H66.5C66.2239 117 66 116.776 66 116.5Z" fill="#3E2C73"/>
<path d="M66 122.5C66 122.224 66.2239 122 66.5 122H116.5C116.776 122 117 122.224 117 122.5C117 122.776 116.776 123 116.5 123H66.5C66.2239 123 66 122.776 66 122.5Z" fill="#3E2C73"/>
<path d="M66 128.5C66 128.224 66.2239 128 66.5 128H111.5C111.776 128 112 128.224 112 128.5C112 128.776 111.776 129 111.5 129H66.5C66.2239 129 66 128.776 66 128.5Z" fill="#3E2C73"/>
<path d="M66 134.5C66 134.224 66.2239 134 66.5 134H102.5C102.776 134 103 134.224 103 134.5C103 134.776 102.776 135 102.5 135H66.5C66.2239 135 66 134.776 66 134.5Z" fill="#3E2C73"/>
<path d="M66 140.5C66 140.224 66.2239 140 66.5 140H114.5C114.776 140 115 140.224 115 140.5C115 140.776 114.776 141 114.5 141H66.5C66.2239 141 66 140.776 66 140.5Z" fill="#3E2C73"/>
<path d="M66 146.5C66 146.224 66.2239 146 66.5 146H108.5C108.776 146 109 146.224 109 146.5C109 146.776 108.776 147 108.5 147H66.5C66.2239 147 66 146.776 66 146.5Z" fill="#3E2C73"/>
<path d="M66 152.5C66 152.224 66.2239 152 66.5 152H95.5C95.7761 152 96 152.224 96 152.5C96 152.776 95.7761 153 95.5 153H66.5C66.2239 153 66 152.776 66 152.5Z" fill="#3E2C73"/>
<path d="M66 158.5C66 158.224 66.2239 158 66.5 158H114.5C114.776 158 115 158.224 115 158.5C115 158.776 114.776 159 114.5 159H66.5C66.2239 159 66 158.776 66 158.5Z" fill="#3E2C73"/>
<path d="M66 164.5C66 164.224 66.2239 164 66.5 164H100.5C100.776 164 101 164.224 101 164.5C101 164.776 100.776 165 100.5 165H66.5C66.2239 165 66 164.776 66 164.5Z" fill="#3E2C73"/>
<path d="M66 170.5C66 170.224 66.2239 170 66.5 170H111.5C111.776 170 112 170.224 112 170.5C112 170.776 111.776 171 111.5 171H66.5C66.2239 171 66 170.776 66 170.5Z" fill="#3E2C73"/>
<path d="M62 116.5C62 116.224 61.7761 116 61.5 116H60.5C60.2239 116 60 116.224 60 116.5C60 116.776 60.2239 117 60.5 117H61.5C61.7761 117 62 116.776 62 116.5Z" fill="#FF7738"/>
<path d="M62 122.5C62 122.224 61.7761 122 61.5 122H60.5C60.2239 122 60 122.224 60 122.5C60 122.776 60.2239 123 60.5 123H61.5C61.7761 123 62 122.776 62 122.5Z" fill="#FF7738"/>
<path d="M62 128.5C62 128.224 61.7761 128 61.5 128H60.5C60.2239 128 60 128.224 60 128.5C60 128.776 60.2239 129 60.5 129H61.5C61.7761 129 62 128.776 62 128.5Z" fill="#FF7738"/>
<path d="M62 134.5C62 134.224 61.7761 134 61.5 134H60.5C60.2239 134 60 134.224 60 134.5C60 134.776 60.2239 135 60.5 135H61.5C61.7761 135 62 134.776 62 134.5Z" fill="#FF7738"/>
<path d="M62 140.5C62 140.224 61.7761 140 61.5 140H60.5C60.2239 140 60 140.224 60 140.5C60 140.776 60.2239 141 60.5 141H61.5C61.7761 141 62 140.776 62 140.5Z" fill="#FF7738"/>
<path d="M62 146.5C62 146.224 61.7761 146 61.5 146H60.5C60.2239 146 60 146.224 60 146.5C60 146.776 60.2239 147 60.5 147H61.5C61.7761 147 62 146.776 62 146.5Z" fill="#FF7738"/>
<path d="M62 152.5C62 152.224 61.7761 152 61.5 152H60.5C60.2239 152 60 152.224 60 152.5C60 152.776 60.2239 153 60.5 153H61.5C61.7761 153 62 152.776 62 152.5Z" fill="#FF7738"/>
<path d="M62 158.5C62 158.224 61.7761 158 61.5 158H60.5C60.2239 158 60 158.224 60 158.5C60 158.776 60.2239 159 60.5 159H61.5C61.7761 159 62 158.776 62 158.5Z" fill="#FF7738"/>
<path d="M62 164.5C62 164.224 61.7761 164 61.5 164H60.5C60.2239 164 60 164.224 60 164.5C60 164.776 60.2239 165 60.5 165H61.5C61.7761 165 62 164.776 62 164.5Z" fill="#FF7738"/>
<path d="M62 170.5C62 170.224 61.7761 170 61.5 170H60.5C60.2239 170 60 170.224 60 170.5C60 170.776 60.2239 171 60.5 171H61.5C61.7761 171 62 170.776 62 170.5Z" fill="#FF7738"/>
<path d="M126 116.5C126 116.224 126.224 116 126.5 116H135.5C135.776 116 136 116.224 136 116.5C136 116.776 135.776 117 135.5 117H126.5C126.224 117 126 116.776 126 116.5Z" fill="#3E2C73"/>
<path d="M126 122.5C126 122.224 126.224 122 126.5 122H135.5C135.776 122 136 122.224 136 122.5C136 122.776 135.776 123 135.5 123H126.5C126.224 123 126 122.776 126 122.5Z" fill="#3E2C73"/>
<path d="M126 128.5C126 128.224 126.224 128 126.5 128H135.5C135.776 128 136 128.224 136 128.5C136 128.776 135.776 129 135.5 129H126.5C126.224 129 126 128.776 126 128.5Z" fill="#3E2C73"/>
<path d="M126 134.5C126 134.224 126.224 134 126.5 134H135.5C135.776 134 136 134.224 136 134.5C136 134.776 135.776 135 135.5 135H126.5C126.224 135 126 134.776 126 134.5Z" fill="#3E2C73"/>
<path d="M126 140.5C126 140.224 126.224 140 126.5 140H135.5C135.776 140 136 140.224 136 140.5C136 140.776 135.776 141 135.5 141H126.5C126.224 141 126 140.776 126 140.5Z" fill="#3E2C73"/>
<path d="M126 146.5C126 146.224 126.224 146 126.5 146H135.5C135.776 146 136 146.224 136 146.5C136 146.776 135.776 147 135.5 147H126.5C126.224 147 126 146.776 126 146.5Z" fill="#3E2C73"/>
<path d="M126 152.5C126 152.224 126.224 152 126.5 152H135.5C135.776 152 136 152.224 136 152.5C136 152.776 135.776 153 135.5 153H126.5C126.224 153 126 152.776 126 152.5Z" fill="#3E2C73"/>
<path d="M126 158.5C126 158.224 126.224 158 126.5 158H135.5C135.776 158 136 158.224 136 158.5C136 158.776 135.776 159 135.5 159H126.5C126.224 159 126 158.776 126 158.5Z" fill="#3E2C73"/>
<path d="M126 164.5C126 164.224 126.224 164 126.5 164H135.5C135.776 164 136 164.224 136 164.5C136 164.776 135.776 165 135.5 165H126.5C126.224 165 126 164.776 126 164.5Z" fill="#3E2C73"/>
<path d="M126 170.5C126 170.224 126.224 170 126.5 170H135.5C135.776 170 136 170.224 136 170.5C136 170.776 135.776 171 135.5 171H126.5C126.224 171 126 170.776 126 170.5Z" fill="#3E2C73"/>
<path d="M144 116.5C144 116.224 144.224 116 144.5 116H153.5C153.776 116 154 116.224 154 116.5C154 116.776 153.776 117 153.5 117H144.5C144.224 117 144 116.776 144 116.5Z" fill="#3E2C73"/>
<path d="M144 122.5C144 122.224 144.224 122 144.5 122H153.5C153.776 122 154 122.224 154 122.5C154 122.776 153.776 123 153.5 123H144.5C144.224 123 144 122.776 144 122.5Z" fill="#3E2C73"/>
<path d="M144 128.5C144 128.224 144.224 128 144.5 128H153.5C153.776 128 154 128.224 154 128.5C154 128.776 153.776 129 153.5 129H144.5C144.224 129 144 128.776 144 128.5Z" fill="#3E2C73"/>
<path d="M144 134.5C144 134.224 144.224 134 144.5 134H153.5C153.776 134 154 134.224 154 134.5C154 134.776 153.776 135 153.5 135H144.5C144.224 135 144 134.776 144 134.5Z" fill="#3E2C73"/>
<path d="M144 140.5C144 140.224 144.224 140 144.5 140H153.5C153.776 140 154 140.224 154 140.5C154 140.776 153.776 141 153.5 141H144.5C144.224 141 144 140.776 144 140.5Z" fill="#3E2C73"/>
<path d="M144 146.5C144 146.224 144.224 146 144.5 146H153.5C153.776 146 154 146.224 154 146.5C154 146.776 153.776 147 153.5 147H144.5C144.224 147 144 146.776 144 146.5Z" fill="#3E2C73"/>
<path d="M144 152.5C144 152.224 144.224 152 144.5 152H153.5C153.776 152 154 152.224 154 152.5C154 152.776 153.776 153 153.5 153H144.5C144.224 153 144 152.776 144 152.5Z" fill="#3E2C73"/>
<path d="M144 158.5C144 158.224 144.224 158 144.5 158H153.5C153.776 158 154 158.224 154 158.5C154 158.776 153.776 159 153.5 159H144.5C144.224 159 144 158.776 144 158.5Z" fill="#3E2C73"/>
<path d="M144 164.5C144 164.224 144.224 164 144.5 164H153.5C153.776 164 154 164.224 154 164.5C154 164.776 153.776 165 153.5 165H144.5C144.224 165 144 164.776 144 164.5Z" fill="#3E2C73"/>
<path d="M144 170.5C144 170.224 144.224 170 144.5 170H153.5C153.776 170 154 170.224 154 170.5C154 170.776 153.776 171 153.5 171H144.5C144.224 171 144 170.776 144 170.5Z" fill="#3E2C73"/>
<path d="M162 116.5C162 116.224 162.224 116 162.5 116H171.5C171.776 116 172 116.224 172 116.5C172 116.776 171.776 117 171.5 117H162.5C162.224 117 162 116.776 162 116.5Z" fill="#3E2C73"/>
<path d="M162 122.5C162 122.224 162.224 122 162.5 122H171.5C171.776 122 172 122.224 172 122.5C172 122.776 171.776 123 171.5 123H162.5C162.224 123 162 122.776 162 122.5Z" fill="#3E2C73"/>
<path d="M162 128.5C162 128.224 162.224 128 162.5 128H171.5C171.776 128 172 128.224 172 128.5C172 128.776 171.776 129 171.5 129H162.5C162.224 129 162 128.776 162 128.5Z" fill="#3E2C73"/>
<path d="M162 134.5C162 134.224 162.224 134 162.5 134H171.5C171.776 134 172 134.224 172 134.5C172 134.776 171.776 135 171.5 135H162.5C162.224 135 162 134.776 162 134.5Z" fill="#3E2C73"/>
<path d="M162 140.5C162 140.224 162.224 140 162.5 140H171.5C171.776 140 172 140.224 172 140.5C172 140.776 171.776 141 171.5 141H162.5C162.224 141 162 140.776 162 140.5Z" fill="#3E2C73"/>
<path d="M162 146.5C162 146.224 162.224 146 162.5 146H171.5C171.776 146 172 146.224 172 146.5C172 146.776 171.776 147 171.5 147H162.5C162.224 147 162 146.776 162 146.5Z" fill="#3E2C73"/>
<path d="M162 152.5C162 152.224 162.224 152 162.5 152H171.5C171.776 152 172 152.224 172 152.5C172 152.776 171.776 153 171.5 153H162.5C162.224 153 162 152.776 162 152.5Z" fill="#3E2C73"/>
<path d="M162 158.5C162 158.224 162.224 158 162.5 158H171.5C171.776 158 172 158.224 172 158.5C172 158.776 171.776 159 171.5 159H162.5C162.224 159 162 158.776 162 158.5Z" fill="#3E2C73"/>
<path d="M162 164.5C162 164.224 162.224 164 162.5 164H171.5C171.776 164 172 164.224 172 164.5C172 164.776 171.776 165 171.5 165H162.5C162.224 165 162 164.776 162 164.5Z" fill="#3E2C73"/>
<path d="M162 170.5C162 170.224 162.224 170 162.5 170H171.5C171.776 170 172 170.224 172 170.5C172 170.776 171.776 171 171.5 171H162.5C162.224 171 162 170.776 162 170.5Z" fill="#3E2C73"/>
<path d="M180 116.5C180 116.224 180.224 116 180.5 116H189.5C189.776 116 190 116.224 190 116.5C190 116.776 189.776 117 189.5 117H180.5C180.224 117 180 116.776 180 116.5Z" fill="#3E2C73"/>
<path d="M180 122.5C180 122.224 180.224 122 180.5 122H189.5C189.776 122 190 122.224 190 122.5C190 122.776 189.776 123 189.5 123H180.5C180.224 123 180 122.776 180 122.5Z" fill="#3E2C73"/>
<path d="M180 128.5C180 128.224 180.224 128 180.5 128H189.5C189.776 128 190 128.224 190 128.5C190 128.776 189.776 129 189.5 129H180.5C180.224 129 180 128.776 180 128.5Z" fill="#3E2C73"/>
<path d="M180 134.5C180 134.224 180.224 134 180.5 134H189.5C189.776 134 190 134.224 190 134.5C190 134.776 189.776 135 189.5 135H180.5C180.224 135 180 134.776 180 134.5Z" fill="#3E2C73"/>
<path d="M180 140.5C180 140.224 180.224 140 180.5 140H189.5C189.776 140 190 140.224 190 140.5C190 140.776 189.776 141 189.5 141H180.5C180.224 141 180 140.776 180 140.5Z" fill="#3E2C73"/>
<path d="M180 146.5C180 146.224 180.224 146 180.5 146H189.5C189.776 146 190 146.224 190 146.5C190 146.776 189.776 147 189.5 147H180.5C180.224 147 180 146.776 180 146.5Z" fill="#3E2C73"/>
<path d="M180 152.5C180 152.224 180.224 152 180.5 152H189.5C189.776 152 190 152.224 190 152.5C190 152.776 189.776 153 189.5 153H180.5C180.224 153 180 152.776 180 152.5Z" fill="#3E2C73"/>
<path d="M180 158.5C180 158.224 180.224 158 180.5 158H189.5C189.776 158 190 158.224 190 158.5C190 158.776 189.776 159 189.5 159H180.5C180.224 159 180 158.776 180 158.5Z" fill="#3E2C73"/>
<path d="M180 164.5C180 164.224 180.224 164 180.5 164H189.5C189.776 164 190 164.224 190 164.5C190 164.776 189.776 165 189.5 165H180.5C180.224 165 180 164.776 180 164.5Z" fill="#3E2C73"/>
<path d="M180 170.5C180 170.224 180.224 170 180.5 170H189.5C189.776 170 190 170.224 190 170.5C190 170.776 189.776 171 189.5 171H180.5C180.224 171 180 170.776 180 170.5Z" fill="#3E2C73"/>
<path d="M198 116.5C198 116.224 198.224 116 198.5 116H206.5C206.776 116 207 116.224 207 116.5C207 116.776 206.776 117 206.5 117H198.5C198.224 117 198 116.776 198 116.5Z" fill="#3E2C73"/>
<path d="M198 122.5C198 122.224 198.224 122 198.5 122H206.5C206.776 122 207 122.224 207 122.5C207 122.776 206.776 123 206.5 123H198.5C198.224 123 198 122.776 198 122.5Z" fill="#3E2C73"/>
<path d="M198 128.5C198 128.224 198.224 128 198.5 128H206.5C206.776 128 207 128.224 207 128.5C207 128.776 206.776 129 206.5 129H198.5C198.224 129 198 128.776 198 128.5Z" fill="#3E2C73"/>
<path d="M198 134.5C198 134.224 198.224 134 198.5 134H206.5C206.776 134 207 134.224 207 134.5C207 134.776 206.776 135 206.5 135H198.5C198.224 135 198 134.776 198 134.5Z" fill="#3E2C73"/>
<path d="M198 140.5C198 140.224 198.224 140 198.5 140H206.5C206.776 140 207 140.224 207 140.5C207 140.776 206.776 141 206.5 141H198.5C198.224 141 198 140.776 198 140.5Z" fill="#3E2C73"/>
<path d="M198 146.5C198 146.224 198.224 146 198.5 146H206.5C206.776 146 207 146.224 207 146.5C207 146.776 206.776 147 206.5 147H198.5C198.224 147 198 146.776 198 146.5Z" fill="#3E2C73"/>
<path d="M198 152.5C198 152.224 198.224 152 198.5 152H206.5C206.776 152 207 152.224 207 152.5C207 152.776 206.776 153 206.5 153H198.5C198.224 153 198 152.776 198 152.5Z" fill="#3E2C73"/>
<path d="M198 158.5C198 158.224 198.224 158 198.5 158H206.5C206.776 158 207 158.224 207 158.5C207 158.776 206.776 159 206.5 159H198.5C198.224 159 198 158.776 198 158.5Z" fill="#3E2C73"/>
<path d="M198 164.5C198 164.224 198.224 164 198.5 164H206.5C206.776 164 207 164.224 207 164.5C207 164.776 206.776 165 206.5 165H198.5C198.224 165 198 164.776 198 164.5Z" fill="#3E2C73"/>
<path d="M198 170.5C198 170.224 198.224 170 198.5 170H206.5C206.776 170 207 170.224 207 170.5C207 170.776 206.776 171 206.5 171H198.5C198.224 171 198 170.776 198 170.5Z" fill="#3E2C73"/>
<path d="M13 24.5C13 24.2239 12.7761 24 12.5 24H10.5C10.2239 24 10 24.2239 10 24.5C10 24.7761 10.2239 25 10.5 25H12.5C12.7761 25 13 24.7761 13 24.5Z" fill="#C1B2DD"/>
<path d="M13 30.5C13 30.2239 12.7761 30 12.5 30H10.5C10.2239 30 10 30.2239 10 30.5C10 30.7761 10.2239 31 10.5 31H12.5C12.7761 31 13 30.7761 13 30.5Z" fill="#C1B2DD"/>
<path d="M13 36.5C13 36.2239 12.7761 36 12.5 36H10.5C10.2239 36 10 36.2239 10 36.5C10 36.7761 10.2239 37 10.5 37H12.5C12.7761 37 13 36.7761 13 36.5Z" fill="#C1B2DD"/>
<path d="M13 42.5C13 42.2239 12.7761 42 12.5 42H10.5C10.2239 42 10 42.2239 10 42.5C10 42.7761 10.2239 43 10.5 43H12.5C12.7761 43 13 42.7761 13 42.5Z" fill="#C1B2DD"/>
<path d="M13 48.5C13 48.2239 12.7761 48 12.5 48H10.5C10.2239 48 10 48.2239 10 48.5C10 48.7761 10.2239 49 10.5 49H12.5C12.7761 49 13 48.7761 13 48.5Z" fill="#C1B2DD"/>
<path d="M13 54.5C13 54.2239 12.7761 54 12.5 54H10.5C10.2239 54 10 54.2239 10 54.5C10 54.7761 10.2239 55 10.5 55H12.5C12.7761 55 13 54.7761 13 54.5Z" fill="#C1B2DD"/>
<path d="M13 64.5C13 64.2239 12.7761 64 12.5 64H10.5C10.2239 64 10 64.2239 10 64.5C10 64.7761 10.2239 65 10.5 65H12.5C12.7761 65 13 64.7761 13 64.5Z" fill="#C1B2DD"/>
<path d="M13 70.5C13 70.2239 12.7761 70 12.5 70H10.5C10.2239 70 10 70.2239 10 70.5C10 70.7761 10.2239 71 10.5 71H12.5C12.7761 71 13 70.7761 13 70.5Z" fill="#C1B2DD"/>
<path d="M13 76.5C13 76.2239 12.7761 76 12.5 76H10.5C10.2239 76 10 76.2239 10 76.5C10 76.7761 10.2239 77 10.5 77H12.5C12.7761 77 13 76.7761 13 76.5Z" fill="#C1B2DD"/>
<path d="M13 87.5C13 87.2239 12.7761 87 12.5 87H10.5C10.2239 87 10 87.2239 10 87.5C10 87.7761 10.2239 88 10.5 88H12.5C12.7761 88 13 87.7761 13 87.5Z" fill="#C1B2DD"/>
<rect x="8" y="10" width="6" height="6" rx="1" fill="white"/>
<rect x="54" y="24" width="65" height="3" rx="1.5" fill="#5A4A79"/>
<rect x="265" y="12" width="10" height="8" rx="1" fill="white"/>
<path d="M271.117 17.9075C271.087 17.9074 271.057 17.8997 271.03 17.885L270 17.345L268.97 17.885C268.94 17.9028 268.906 17.9122 268.871 17.9122C268.836 17.9122 268.802 17.9028 268.772 17.885C268.744 17.8641 268.722 17.8358 268.709 17.8031C268.695 17.7704 268.692 17.7347 268.697 17.7L268.895 16.5525L268.06 15.7275C268.035 15.703 268.017 15.6719 268.009 15.6378C268 15.6038 268.002 15.568 268.013 15.5347C268.024 15.5014 268.044 15.4718 268.071 15.4493C268.097 15.4268 268.13 15.4123 268.165 15.4075L269.317 15.25L269.832 14.1975C269.85 14.1684 269.874 14.1444 269.904 14.1277C269.933 14.1111 269.966 14.1023 270 14.1023C270.034 14.1023 270.067 14.1111 270.096 14.1277C270.126 14.1444 270.15 14.1684 270.167 14.1975L270.682 15.25L271.835 15.4175C271.87 15.4223 271.902 15.4368 271.929 15.4593C271.956 15.4818 271.976 15.5114 271.987 15.5447C271.998 15.578 272 15.6138 271.991 15.6478C271.983 15.6819 271.965 15.713 271.94 15.7375L271.105 16.55L271.302 17.6975C271.308 17.7322 271.304 17.7679 271.291 17.8006C271.278 17.8333 271.256 17.8616 271.227 17.8825C271.194 17.9013 271.156 17.91 271.117 17.9075V17.9075Z" fill="#3E2C73"/>
<path d="M3.70327 189.422L3 2L285.029 4.44156L289 194L3.70327 189.422Z" stroke="#3E2C73" stroke-width="0.75"/>
<path d="M287 191.789V2H1.71405L1 192L287 191.789Z" stroke="#FF7738" stroke-width="1.5"/>
<path d="M54.375 105C54.375 104.103 55.1025 103.375 56 103.375H212C212.897 103.375 213.625 104.103 213.625 105V176C213.625 176.897 212.897 177.625 212 177.625H56C55.1025 177.625 54.375 176.897 54.375 176V105Z" stroke="#3E2C73" stroke-width="0.75"/>
<rect x="223.452" y="103.708" width="52.0449" height="2.18333" rx="1.09167" stroke="#3E2C73" stroke-width="0.75"/>
<rect x="223.452" y="113.975" width="52.0449" height="2.18333" rx="1.09167" stroke="#3E2C73" stroke-width="0.75"/>
<rect x="223.452" y="124.242" width="52.0449" height="2.18333" rx="1.09167" stroke="#3E2C73" stroke-width="0.75"/>
<rect x="223.452" y="134.508" width="52.0449" height="2.18333" rx="1.09167" stroke="#3E2C73" stroke-width="0.75"/>
<path d="M223.452 145.867C223.452 145.264 223.941 144.775 224.544 144.775H274.405C275.008 144.775 275.497 145.264 275.497 145.867C275.497 146.47 275.008 146.958 274.405 146.958H224.544C223.941 146.958 223.452 146.47 223.452 145.867Z" stroke="#3E2C73" stroke-width="0.75"/>
</svg>
