<svg xmlns="http://www.w3.org/2000/svg" viewBox="0 0 600 132.6" fill="#fff"><path d="M372 85.2l-44.5-57.4h-11.1v77h11.2v-59l45.7 59h9.8v-77H372v57.4zM260 70.9h39.8v-10h-39.9V37.8h45v-10h-56.4v77h57v-10h-45.6l.1-23.9zm-46.9-9.7c-15.6-3.7-19.8-6.7-19.8-13.8 0-6.5 5.7-10.8 14.2-10.8 7.1 0 14.1 2.5 21.3 7.7l6.1-8.5c-8-6.1-16.6-9-27.1-9-15.2 0-25.9 9-25.9 21.9 0 13.8 9 18.6 25.5 22.6 14.5 3.4 18.9 6.5 18.9 13.5s-6 11.4-15.4 11.4c-9.1 0-16.8-3-25-9.8l-6.8 8.1c8.7 7.5 19.9 11.6 31.4 11.6 16.5 0 27.1-8.9 27.1-22.6.1-11.8-6.8-18.1-24.5-22.3zM587 27.8l-23.2 36.3-23-36.3h-13.4l30.5 46.5v30.5h11.6V74L600 27.8h-13zM392.3 38.2h25.2v66.6h11.6V38.2h25.2V27.8h-62v10.4zm115.5 36.5c11.6-3.2 18-11.4 18-23 0-14.8-10.8-24-28.3-24h-34.1v77h11.5V77.1h19.4l19.5 27.7h13.4l-21.1-29.6 1.7-.5zm-33-7.5V38h21.6c11.3 0 17.7 5.3 17.7 14.6 0 8.9-6.9 14.7-17.6 14.7l-21.7-.1zM86.3 6.9c-3.8-6.6-12.2-8.8-18.8-5-2.1 1.2-3.8 2.9-5 5l-19.6 34 5 2.9C75.8 59.9 93.8 89 95.7 121.2H82c-2-27.4-17.3-52-41-65.6l-5-2.9-18.3 31.7 5 2.9C35 94.5 43.3 107 45.2 121.1H13.8c-1.3 0-2.3-1-2.3-2.2 0-.4.1-.8.3-1.2l8.8-15.2c-3-2.5-6.3-4.4-10-5.7l-8.7 15.1c-3.8 6.6-1.5 15 5 18.8 2.1 1.2 4.5 1.8 6.9 1.8H57v-5.7c0-18.4-8.8-35.6-23.7-46.4l6.9-11.9c19.1 13.2 30.5 35 30.6 58.3v5.7h36.6v-5.7c0-36.3-18.4-70.2-48.8-90.1l13.9-24.1c.6-1.1 2-1.5 3.1-.8.3.2.6.5.8.8L137 117.7c.6 1.1.3 2.5-.8 3.1-.4.2-.8.3-1.2.3h-14.2c.2 3.8.2 7.7 0 11.5H135c7.6 0 13.7-6.2 13.7-13.8 0-2.4-.6-4.8-1.8-6.9L86.3 6.9z"/></svg>