<svg width="342" height="143" viewBox="0 0 342 143" fill="none" xmlns="http://www.w3.org/2000/svg">
<rect x="1" y="30" width="340" height="19" fill="#C1B2DD"/>
<path d="M1.66524 24.5221L1.12812 3.05646C1.09994 1.93015 2.00696 1.00676 3.13346 1.01495L337.993 3.44894C339.071 3.45677 339.952 4.31727 339.986 5.39471L340.634 26.0654C340.67 27.1947 339.764 28.1252 338.634 28.1196L3.6633 26.4806C2.57874 26.4753 1.69238 25.6065 1.66524 24.5221Z" stroke="#FF7738" stroke-width="1.5"/>
<path d="M339.073 139.937L339.009 5.12872C339.008 4.0236 338.112 3.13 337.006 3.1333L4.81581 4.12571C3.71667 4.129 2.82452 5.01866 2.81818 6.11781L2.05346 138.735C2.04709 139.84 2.93776 140.739 4.0426 140.743L337.062 141.942C338.171 141.946 339.073 141.046 339.073 139.937Z" stroke="#3E2C73" stroke-width="0.75"/>
<rect x="33" y="13" width="57" height="2" rx="1" fill="#3E2C73"/>
<rect x="96" y="13" width="19" height="2" rx="1" fill="#3E2C73"/>
<rect x="120" y="13" width="71" height="2" rx="1" fill="#FF7738"/>
<rect x="33" y="39" width="87" height="2" rx="1" fill="#5A4A79"/>
<rect x="33" y="60" width="75" height="2" rx="1" fill="#3E2C73"/>
<rect x="33" y="71" width="164" height="2" rx="1" fill="#3E2C73"/>
<rect x="33" y="82" width="187" height="2" rx="1" fill="#3E2C73"/>
<rect x="33" y="93" width="63" height="2" rx="1" fill="#3E2C73"/>
<rect x="33" y="104" width="120" height="2" rx="1" fill="#3E2C73"/>
<rect x="33" y="115" width="41" height="2" rx="1" fill="#3E2C73"/>
<rect x="33" y="126" width="98" height="2" rx="1" fill="#3E2C73"/>
<rect x="12" y="60" width="10" height="2" rx="1" fill="#C1B2DD"/>
<rect x="12" y="39" width="10" height="2" rx="1" fill="#5A4A79"/>
<rect x="12" y="71" width="10" height="2" rx="1" fill="#C1B2DD"/>
<rect x="12" y="82" width="10" height="2" rx="1" fill="#C1B2DD"/>
<rect x="12" y="93" width="10" height="2" rx="1" fill="#C1B2DD"/>
<rect x="12" y="104" width="10" height="2" rx="1" fill="#C1B2DD"/>
<rect x="12" y="115" width="10" height="2" rx="1" fill="#C1B2DD"/>
<rect x="12" y="126" width="10" height="2" rx="1" fill="#C1B2DD"/>
<path d="M19.6083 15.325L22.725 18.4417C23.0917 18.8083 23.0917 19.3583 22.725 19.725C22.3583 20.0917 21.8083 20.0917 21.4417 19.725L18.325 16.6083C17.6833 16.975 16.95 17.25 16.125 17.25C13.8333 17.25 12 15.4167 12 13.125C12 10.8333 13.8333 9 16.125 9C18.4167 9 20.25 10.8333 20.25 13.125C20.25 13.95 19.975 14.6833 19.6083 15.325ZM16.125 15.4167C17.4083 15.4167 18.4167 14.4083 18.4167 13.125C18.4167 11.8417 17.4083 10.8333 16.125 10.8333C14.8417 10.8333 13.8333 11.8417 13.8333 13.125C13.8333 14.4083 14.8417 15.4167 16.125 15.4167Z" fill="#3E2C73"/>
</svg>
