<svg width="339" height="166" viewBox="0 0 339 166" fill="none" xmlns="http://www.w3.org/2000/svg">
<rect x="33" y="3" width="193" height="19" fill="#C1B2DD"/>
<rect x="47" y="12" width="87" height="2" rx="1" fill="#5A4A79"/>
<rect x="202" y="12" width="12" height="2" rx="1" fill="#5A4A79"/>
<path d="M223.629 4.87403L224 58L35.3571 55.4091L34 1L223.629 4.87403Z" stroke="#FF7738" stroke-width="1.5"/>
<path d="M36.4622 4L36 55.235L222.103 56L223 4.38436L36.4622 4Z" stroke="#3E2C73" stroke-width="0.75"/>
<rect x="47" y="32" width="115" height="3" rx="1.5" fill="#3E2C73"/>
<rect x="47" y="40" width="72" height="3" rx="1.5" fill="#3E2C73"/>
<rect x="122" y="40" width="9" height="3" rx="1.5" fill="#3E2C73"/>
<circle cx="11.7581" cy="12.7581" r="11.7581" fill="#EDE7F5"/>
<circle cx="13.0645" cy="14.0645" r="11.3831" stroke="#3E2C73" stroke-width="0.75"/>
<rect x="146" y="67" width="193" height="19" fill="#C1B2DD"/>
<rect x="160" y="76" width="87" height="2" rx="1" fill="#5A4A79"/>
<rect x="315" y="76" width="12" height="2" rx="1" fill="#5A4A79"/>
<path d="M336.629 68.874L337 122L148.357 119.409L147 65L336.629 68.874Z" stroke="#FF7738" stroke-width="1.5"/>
<path d="M149.462 68L149 119.235L335.103 120L336 68.3844L149.462 68Z" stroke="#3E2C73" stroke-width="0.75"/>
<rect x="160" y="96" width="72" height="3" rx="1.5" fill="#3E2C73"/>
<rect x="235" y="96" width="82" height="3" rx="1.5" fill="#3E2C73"/>
<circle cx="125.758" cy="76.7581" r="11.7581" fill="#FF7738"/>
<circle cx="127.065" cy="78.0645" r="11.3831" stroke="#3E2C73" stroke-width="0.75"/>
<rect x="33" y="110" width="193" height="19" fill="#C1B2DD"/>
<rect x="47" y="119" width="87" height="2" rx="1" fill="#5A4A79"/>
<rect x="202" y="119" width="12" height="2" rx="1" fill="#5A4A79"/>
<path d="M223.629 111.874L224 165L35.3571 162.409L34 108L223.629 111.874Z" stroke="#FF7738" stroke-width="1.5"/>
<path d="M36.4622 111L36 162.235L222.103 163L223 111.384L36.4622 111Z" stroke="#3E2C73" stroke-width="0.75"/>
<rect x="47" y="139" width="25" height="3" rx="1.5" fill="#3E2C73"/>
<rect x="77" y="139" width="127" height="3" rx="1.5" fill="#3E2C73"/>
<rect x="47" y="147" width="134" height="3" rx="1.5" fill="#3E2C73"/>
<circle cx="12.7581" cy="119.758" r="11.7581" fill="#5A4A79"/>
<circle cx="14.0645" cy="121.064" r="11.3831" stroke="#3E2C73" stroke-width="0.75"/>
<rect x="33" y="110" width="193" height="19" fill="#C1B2DD"/>
<rect x="47" y="119" width="87" height="2" rx="1" fill="#5A4A79"/>
<rect x="202" y="119" width="12" height="2" rx="1" fill="#5A4A79"/>
<path d="M223.629 111.874L224 165L35.3571 162.409L34 108L223.629 111.874Z" stroke="#FF7738" stroke-width="1.5"/>
<path d="M36.4622 111L36 162.235L222.103 163L223 111.384L36.4622 111Z" stroke="#3E2C73" stroke-width="0.75"/>
<circle cx="12.7581" cy="119.758" r="11.7581" fill="#5A4A79"/>
<circle cx="14.0645" cy="121.064" r="11.3831" stroke="#3E2C73" stroke-width="0.75"/>
</svg>
