<svg width="399" height="143" viewBox="0 0 399 143" fill="none" xmlns="http://www.w3.org/2000/svg">
<path d="M4 3C4 1.34315 5.34315 0 7 0H396C397.657 0 399 1.34315 399 3V24H4V3Z" fill="#C1B2DD"/>
<path d="M393.883 139.161L395 4H3.10474L1 141L393.883 139.161Z" stroke="#3E2C73" stroke-width="0.75"/>
<rect x="34" y="36" width="40" height="2" rx="1" fill="#3E2C73"/>
<rect x="105" y="36" width="26" height="2" rx="1" fill="#3E2C73"/>
<mask id="path-5-inside-1" fill="white">
<rect x="93" y="33" width="8" height="8" rx="1"/>
</mask>
<rect x="93" y="33" width="8" height="8" rx="1" stroke="#C1B2DD" stroke-width="3" mask="url(#path-5-inside-1)"/>
<rect x="150" y="36" width="22" height="2" rx="1" fill="#3E2C73"/>
<path d="M339 33C339 32.4477 339.448 32 340 32H368V40H340C339.448 40 339 39.5523 339 39V33Z" fill="#E1567C"/>
<path d="M2.82763 138.758L1 2H396.011L397 142L2.82763 138.758Z" stroke="#FF7738" stroke-width="1.5"/>
<rect x="34" y="13" width="40" height="2" rx="1" fill="#5A4A79"/>
<rect x="339" y="13" width="39" height="2" rx="1" fill="#5A4A79"/>
<rect x="93" y="13" width="31" height="2" rx="1" fill="#5A4A79"/>
<rect x="150" y="13" width="22" height="2" rx="1" fill="#5A4A79"/>
<rect x="341.375" y="33.375" width="36.25" height="7.25" rx="0.625" stroke="#3E2C73" stroke-width="0.75"/>
<path d="M24.235 40.815C24.1738 40.8149 24.1136 40.7995 24.06 40.77L22 39.69L19.94 40.77C19.8803 40.8057 19.8121 40.8245 19.7425 40.8245C19.673 40.8245 19.6047 40.8057 19.545 40.77C19.4881 40.7283 19.444 40.6717 19.4175 40.6063C19.391 40.541 19.3832 40.4695 19.395 40.4L19.79 38.105L18.12 36.455C18.0698 36.4061 18.0342 36.344 18.0175 36.2758C18.0008 36.2077 18.0035 36.1362 18.0254 36.0695C18.0473 36.0029 18.0874 35.9437 18.1413 35.8987C18.1951 35.8537 18.2605 35.8247 18.33 35.815L20.635 35.5L21.665 33.395C21.6996 33.337 21.7486 33.289 21.8074 33.2556C21.8661 33.2223 21.9325 33.2047 22 33.2047C22.0675 33.2047 22.1339 33.2223 22.1927 33.2556C22.2514 33.289 22.3004 33.337 22.335 33.395L23.365 35.5L25.67 35.835C25.7395 35.8447 25.8049 35.8737 25.8587 35.9187C25.9126 35.9637 25.9527 36.0229 25.9746 36.0895C25.9965 36.1562 25.9992 36.2277 25.9825 36.2958C25.9658 36.364 25.9303 36.4261 25.88 36.475L24.21 38.1L24.605 40.395C24.6168 40.4645 24.609 40.536 24.5825 40.6013C24.556 40.6667 24.5119 40.7233 24.455 40.765C24.3881 40.8027 24.3116 40.8201 24.235 40.815V40.815Z" fill="#FF7738"/>
<path d="M24.235 17.815C24.1738 17.8149 24.1136 17.7995 24.06 17.77L22 16.69L19.94 17.77C19.8803 17.8057 19.8121 17.8245 19.7425 17.8245C19.673 17.8245 19.6047 17.8057 19.545 17.77C19.4881 17.7283 19.444 17.6717 19.4175 17.6063C19.391 17.541 19.3832 17.4695 19.395 17.4L19.79 15.105L18.12 13.455C18.0698 13.4061 18.0342 13.344 18.0175 13.2758C18.0008 13.2077 18.0035 13.1362 18.0254 13.0695C18.0473 13.0029 18.0874 12.9437 18.1413 12.8987C18.1951 12.8537 18.2605 12.8247 18.33 12.815L20.635 12.5L21.665 10.395C21.6996 10.337 21.7486 10.289 21.8074 10.2556C21.8661 10.2223 21.9325 10.2047 22 10.2047C22.0675 10.2047 22.1339 10.2223 22.1927 10.2556C22.2514 10.289 22.3004 10.337 22.335 10.395L23.365 12.5L25.67 12.835C25.7395 12.8447 25.8049 12.8737 25.8587 12.9187C25.9126 12.9637 25.9527 13.0229 25.9746 13.0895C25.9965 13.1562 25.9992 13.2277 25.9825 13.2958C25.9658 13.364 25.9303 13.4261 25.88 13.475L24.21 15.1L24.605 17.395C24.6168 17.4645 24.609 17.536 24.5825 17.6013C24.556 17.6667 24.5119 17.7233 24.455 17.765C24.3881 17.8027 24.3116 17.8201 24.235 17.815V17.815Z" fill="#5A4A79"/>
<rect x="34" y="51" width="40" height="2" rx="1" fill="#3E2C73"/>
<rect x="105" y="51" width="26" height="2" rx="1" fill="#3E2C73"/>
<mask id="path-20-inside-2" fill="white">
<rect x="93" y="48" width="8" height="8" rx="1"/>
</mask>
<rect x="93" y="48" width="8" height="8" rx="1" stroke="#C1B2DD" stroke-width="3" mask="url(#path-20-inside-2)"/>
<rect x="150" y="51" width="22" height="2" rx="1" fill="#3E2C73"/>
<path d="M339 48C339 47.4477 339.448 47 340 47H368V55H340C339.448 55 339 54.5523 339 54V48Z" fill="#E1567C"/>
<rect x="341.375" y="48.375" width="36.25" height="7.25" rx="0.625" stroke="#3E2C73" stroke-width="0.75"/>
<path d="M24.235 55.815C24.1738 55.8149 24.1136 55.7995 24.06 55.77L22 54.69L19.94 55.77C19.8803 55.8057 19.8121 55.8245 19.7425 55.8245C19.673 55.8245 19.6047 55.8057 19.545 55.77C19.4881 55.7283 19.444 55.6717 19.4175 55.6063C19.391 55.541 19.3832 55.4695 19.395 55.4L19.79 53.105L18.12 51.455C18.0698 51.4061 18.0342 51.344 18.0175 51.2758C18.0008 51.2077 18.0035 51.1362 18.0254 51.0695C18.0473 51.0029 18.0874 50.9437 18.1413 50.8987C18.1951 50.8537 18.2605 50.8247 18.33 50.815L20.635 50.5L21.665 48.395C21.6996 48.337 21.7486 48.289 21.8074 48.2556C21.8661 48.2223 21.9325 48.2047 22 48.2047C22.0675 48.2047 22.1339 48.2223 22.1927 48.2556C22.2514 48.289 22.3004 48.337 22.335 48.395L23.365 50.5L25.67 50.835C25.7395 50.8447 25.8049 50.8737 25.8587 50.9187C25.9126 50.9637 25.9527 51.0229 25.9746 51.0895C25.9965 51.1562 25.9992 51.2277 25.9825 51.2958C25.9658 51.364 25.9303 51.4261 25.88 51.475L24.21 53.1L24.605 55.395C24.6168 55.4645 24.609 55.536 24.5825 55.6013C24.556 55.6667 24.5119 55.7233 24.455 55.765C24.3881 55.8027 24.3116 55.8201 24.235 55.815V55.815Z" fill="#FF7738"/>
<rect x="34" y="65" width="40" height="2" rx="1" fill="#3E2C73"/>
<rect x="105" y="65" width="26" height="2" rx="1" fill="#3E2C73"/>
<mask id="path-28-inside-3" fill="white">
<rect x="93" y="62" width="8" height="8" rx="1"/>
</mask>
<rect x="93" y="62" width="8" height="8" rx="1" stroke="#C1B2DD" stroke-width="3" mask="url(#path-28-inside-3)"/>
<rect x="150" y="65" width="22" height="2" rx="1" fill="#3E2C73"/>
<rect x="187" y="36" width="22" height="2" rx="1" fill="#3E2C73"/>
<rect x="187" y="13" width="22" height="2" rx="1" fill="#5A4A79"/>
<rect x="187" y="51" width="22" height="2" rx="1" fill="#3E2C73"/>
<rect x="187" y="65" width="22" height="2" rx="1" fill="#3E2C73"/>
<rect x="224" y="36" width="22" height="2" rx="1" fill="#3E2C73"/>
<rect x="224" y="13" width="22" height="2" rx="1" fill="#5A4A79"/>
<rect x="224" y="51" width="22" height="2" rx="1" fill="#3E2C73"/>
<rect x="224" y="65" width="22" height="2" rx="1" fill="#3E2C73"/>
<rect x="261" y="36" width="22" height="2" rx="1" fill="#3E2C73"/>
<rect x="261" y="13" width="22" height="2" rx="1" fill="#5A4A79"/>
<rect x="261" y="51" width="22" height="2" rx="1" fill="#3E2C73"/>
<rect x="261" y="65" width="22" height="2" rx="1" fill="#3E2C73"/>
<rect x="298" y="36" width="22" height="2" rx="1" fill="#3E2C73"/>
<rect x="298" y="13" width="22" height="2" rx="1" fill="#5A4A79"/>
<rect x="298" y="51" width="22" height="2" rx="1" fill="#3E2C73"/>
<rect x="298" y="65" width="22" height="2" rx="1" fill="#3E2C73"/>
<path d="M339 62C339 61.4477 339.448 61 340 61H368V69H340C339.448 69 339 68.5523 339 68V62Z" fill="#E1567C"/>
<rect x="341.375" y="62.375" width="36.25" height="7.25" rx="0.625" stroke="#3E2C73" stroke-width="0.75"/>
<path d="M24.235 69.815C24.1738 69.8149 24.1136 69.7995 24.06 69.77L22 68.69L19.94 69.77C19.8803 69.8057 19.8121 69.8245 19.7425 69.8245C19.673 69.8245 19.6047 69.8057 19.545 69.77C19.4881 69.7283 19.444 69.6717 19.4175 69.6063C19.391 69.541 19.3832 69.4695 19.395 69.4L19.79 67.105L18.12 65.455C18.0698 65.4061 18.0342 65.344 18.0175 65.2758C18.0008 65.2077 18.0035 65.1362 18.0254 65.0695C18.0473 65.0029 18.0874 64.9437 18.1413 64.8987C18.1951 64.8537 18.2605 64.8247 18.33 64.815L20.635 64.5L21.665 62.395C21.6996 62.337 21.7486 62.289 21.8074 62.2556C21.8661 62.2223 21.9325 62.2047 22 62.2047C22.0675 62.2047 22.1339 62.2223 22.1927 62.2556C22.2514 62.289 22.3004 62.337 22.335 62.395L23.365 64.5L25.67 64.835C25.7395 64.8447 25.8049 64.8737 25.8587 64.9187C25.9126 64.9637 25.9527 65.0229 25.9746 65.0895C25.9965 65.1562 25.9992 65.2277 25.9825 65.2958C25.9658 65.364 25.9303 65.4261 25.88 65.475L24.21 67.1L24.605 69.395C24.6168 69.4645 24.609 69.536 24.5825 69.6013C24.556 69.6667 24.5119 69.7233 24.455 69.765C24.3881 69.8027 24.3116 69.8201 24.235 69.815V69.815Z" fill="#FF7738"/>
<rect x="34" y="80" width="40" height="2" rx="1" fill="#3E2C73"/>
<rect x="105" y="80" width="26" height="2" rx="1" fill="#3E2C73"/>
<mask id="path-52-inside-4" fill="white">
<rect x="93" y="77" width="8" height="8" rx="1"/>
</mask>
<rect x="93" y="77" width="8" height="8" rx="1" stroke="#C1B2DD" stroke-width="3" mask="url(#path-52-inside-4)"/>
<rect x="150" y="80" width="22" height="2" rx="1" fill="#3E2C73"/>
<path d="M339 77C339 76.4477 339.448 76 340 76H368V84H340C339.448 84 339 83.5523 339 83V77Z" fill="#E1567C"/>
<rect x="341.375" y="77.375" width="36.25" height="7.25" rx="0.625" stroke="#3E2C73" stroke-width="0.75"/>
<path d="M24.235 84.815C24.1738 84.8149 24.1136 84.7995 24.06 84.77L22 83.69L19.94 84.77C19.8803 84.8057 19.8121 84.8245 19.7425 84.8245C19.673 84.8245 19.6047 84.8057 19.545 84.77C19.4881 84.7283 19.444 84.6717 19.4175 84.6063C19.391 84.541 19.3832 84.4695 19.395 84.4L19.79 82.105L18.12 80.455C18.0698 80.4061 18.0342 80.344 18.0175 80.2758C18.0008 80.2077 18.0035 80.1362 18.0254 80.0695C18.0473 80.0029 18.0874 79.9437 18.1413 79.8987C18.1951 79.8537 18.2605 79.8247 18.33 79.815L20.635 79.5L21.665 77.395C21.6996 77.337 21.7486 77.289 21.8074 77.2556C21.8661 77.2223 21.9325 77.2047 22 77.2047C22.0675 77.2047 22.1339 77.2223 22.1927 77.2556C22.2514 77.289 22.3004 77.337 22.335 77.395L23.365 79.5L25.67 79.835C25.7395 79.8447 25.8049 79.8737 25.8587 79.9187C25.9126 79.9637 25.9527 80.0229 25.9746 80.0895C25.9965 80.1562 25.9992 80.2277 25.9825 80.2958C25.9658 80.364 25.9303 80.4261 25.88 80.475L24.21 82.1L24.605 84.395C24.6168 84.4645 24.609 84.536 24.5825 84.6013C24.556 84.6667 24.5119 84.7233 24.455 84.765C24.3881 84.8027 24.3116 84.8201 24.235 84.815V84.815ZM22 82.89C22.0605 82.8907 22.1202 82.9044 22.175 82.93L23.735 83.755L23.44 82C23.4293 81.9399 23.4332 81.878 23.4515 81.8197C23.4698 81.7614 23.5019 81.7083 23.545 81.665L24.81 80.45L23.065 80.195C23.0052 80.1881 22.948 80.1668 22.8984 80.1328C22.8487 80.0988 22.8081 80.0533 22.78 80L22 78.41L21.22 80C21.1932 80.0551 21.1531 80.1027 21.1034 80.1385C21.0536 80.1743 20.9958 80.1971 20.935 80.205L19.19 80.45L20.455 81.68C20.4975 81.7238 20.5291 81.7769 20.5473 81.835C20.5656 81.8932 20.5699 81.9549 20.56 82.015L20.265 83.755L21.825 82.93C21.8798 82.9044 21.9395 82.8907 22 82.89V82.89Z" fill="#C1B2DD"/>
<rect x="34" y="94" width="40" height="2" rx="1" fill="#3E2C73"/>
<rect x="105" y="94" width="26" height="2" rx="1" fill="#3E2C73"/>
<mask id="path-59-inside-5" fill="white">
<rect x="93" y="91" width="8" height="8" rx="1"/>
</mask>
<rect x="93" y="91" width="8" height="8" rx="1" stroke="#C1B2DD" stroke-width="3" mask="url(#path-59-inside-5)"/>
<rect x="150" y="94" width="22" height="2" rx="1" fill="#3E2C73"/>
<rect x="187" y="80" width="22" height="2" rx="1" fill="#3E2C73"/>
<rect x="187" y="94" width="22" height="2" rx="1" fill="#3E2C73"/>
<rect x="224" y="80" width="22" height="2" rx="1" fill="#3E2C73"/>
<rect x="224" y="94" width="22" height="2" rx="1" fill="#3E2C73"/>
<rect x="261" y="80" width="22" height="2" rx="1" fill="#3E2C73"/>
<rect x="261" y="94" width="22" height="2" rx="1" fill="#3E2C73"/>
<rect x="298" y="80" width="22" height="2" rx="1" fill="#3E2C73"/>
<rect x="298" y="94" width="22" height="2" rx="1" fill="#3E2C73"/>
<path d="M339 91C339 90.4477 339.448 90 340 90H368V98H340C339.448 98 339 97.5523 339 97V91Z" fill="#E1567C"/>
<rect x="341.375" y="91.375" width="36.25" height="7.25" rx="0.625" stroke="#3E2C73" stroke-width="0.75"/>
<path d="M24.235 98.815C24.1738 98.8149 24.1136 98.7995 24.06 98.77L22 97.69L19.94 98.77C19.8803 98.8057 19.8121 98.8245 19.7425 98.8245C19.673 98.8245 19.6047 98.8057 19.545 98.77C19.4881 98.7283 19.444 98.6717 19.4175 98.6063C19.391 98.541 19.3832 98.4695 19.395 98.4L19.79 96.105L18.12 94.455C18.0698 94.4061 18.0342 94.344 18.0175 94.2758C18.0008 94.2077 18.0035 94.1362 18.0254 94.0695C18.0473 94.0029 18.0874 93.9437 18.1413 93.8987C18.1951 93.8537 18.2605 93.8247 18.33 93.815L20.635 93.5L21.665 91.395C21.6996 91.337 21.7486 91.289 21.8074 91.2556C21.8661 91.2223 21.9325 91.2047 22 91.2047C22.0675 91.2047 22.1339 91.2223 22.1927 91.2556C22.2514 91.289 22.3004 91.337 22.335 91.395L23.365 93.5L25.67 93.835C25.7395 93.8447 25.8049 93.8737 25.8587 93.9187C25.9126 93.9637 25.9527 94.0229 25.9746 94.0895C25.9965 94.1562 25.9992 94.2277 25.9825 94.2958C25.9658 94.364 25.9303 94.4261 25.88 94.475L24.21 96.1L24.605 98.395C24.6168 98.4645 24.609 98.536 24.5825 98.6013C24.556 98.6667 24.5119 98.7233 24.455 98.765C24.3881 98.8027 24.3116 98.8201 24.235 98.815V98.815ZM22 96.89C22.0605 96.8907 22.1202 96.9044 22.175 96.93L23.735 97.755L23.44 96C23.4293 95.9399 23.4332 95.878 23.4515 95.8197C23.4698 95.7614 23.5019 95.7083 23.545 95.665L24.81 94.45L23.065 94.195C23.0052 94.1881 22.948 94.1668 22.8984 94.1328C22.8487 94.0988 22.8081 94.0533 22.78 94L22 92.41L21.22 94C21.1932 94.0551 21.1531 94.1027 21.1034 94.1385C21.0536 94.1743 20.9958 94.1971 20.935 94.205L19.19 94.45L20.455 95.68C20.4975 95.7238 20.5291 95.7769 20.5473 95.835C20.5656 95.8932 20.5699 95.9549 20.56 96.015L20.265 97.755L21.825 96.93C21.8798 96.9044 21.9395 96.8907 22 96.89V96.89Z" fill="#C1B2DD"/>
<rect x="34" y="109" width="40" height="2" rx="1" fill="#3E2C73"/>
<rect x="105" y="109" width="26" height="2" rx="1" fill="#3E2C73"/>
<mask id="path-74-inside-6" fill="white">
<rect x="93" y="106" width="8" height="8" rx="1"/>
</mask>
<rect x="93" y="106" width="8" height="8" rx="1" stroke="#C1B2DD" stroke-width="3" mask="url(#path-74-inside-6)"/>
<rect x="150" y="109" width="22" height="2" rx="1" fill="#3E2C73"/>
<path d="M339 106C339 105.448 339.448 105 340 105H368V113H340C339.448 113 339 112.552 339 112V106Z" fill="#E1567C"/>
<rect x="341.375" y="106.375" width="36.25" height="7.25" rx="0.625" stroke="#3E2C73" stroke-width="0.75"/>
<path d="M24.235 113.815C24.1738 113.815 24.1136 113.799 24.06 113.77L22 112.69L19.94 113.77C19.8803 113.806 19.8121 113.825 19.7425 113.825C19.673 113.825 19.6047 113.806 19.545 113.77C19.4881 113.728 19.444 113.672 19.4175 113.606C19.391 113.541 19.3832 113.47 19.395 113.4L19.79 111.105L18.12 109.455C18.0698 109.406 18.0342 109.344 18.0175 109.276C18.0008 109.208 18.0035 109.136 18.0254 109.07C18.0473 109.003 18.0874 108.944 18.1413 108.899C18.1951 108.854 18.2605 108.825 18.33 108.815L20.635 108.5L21.665 106.395C21.6996 106.337 21.7486 106.289 21.8074 106.256C21.8661 106.222 21.9325 106.205 22 106.205C22.0675 106.205 22.1339 106.222 22.1927 106.256C22.2514 106.289 22.3004 106.337 22.335 106.395L23.365 108.5L25.67 108.835C25.7395 108.845 25.8049 108.874 25.8587 108.919C25.9126 108.964 25.9527 109.023 25.9746 109.09C25.9965 109.156 25.9992 109.228 25.9825 109.296C25.9658 109.364 25.9303 109.426 25.88 109.475L24.21 111.1L24.605 113.395C24.6168 113.465 24.609 113.536 24.5825 113.601C24.556 113.667 24.5119 113.723 24.455 113.765C24.3881 113.803 24.3116 113.82 24.235 113.815V113.815ZM22 111.89C22.0605 111.891 22.1202 111.904 22.175 111.93L23.735 112.755L23.44 111C23.4293 110.94 23.4332 110.878 23.4515 110.82C23.4698 110.761 23.5019 110.708 23.545 110.665L24.81 109.45L23.065 109.195C23.0052 109.188 22.948 109.167 22.8984 109.133C22.8487 109.099 22.8081 109.053 22.78 109L22 107.41L21.22 109C21.1932 109.055 21.1531 109.103 21.1034 109.138C21.0536 109.174 20.9958 109.197 20.935 109.205L19.19 109.45L20.455 110.68C20.4975 110.724 20.5291 110.777 20.5473 110.835C20.5656 110.893 20.5699 110.955 20.56 111.015L20.265 112.755L21.825 111.93C21.8798 111.904 21.9395 111.891 22 111.89V111.89Z" fill="#C1B2DD"/>
<rect x="34" y="123" width="40" height="2" rx="1" fill="#3E2C73"/>
<rect x="105" y="123" width="26" height="2" rx="1" fill="#3E2C73"/>
<mask id="path-81-inside-7" fill="white">
<rect x="93" y="120" width="8" height="8" rx="1"/>
</mask>
<rect x="93" y="120" width="8" height="8" rx="1" stroke="#C1B2DD" stroke-width="3" mask="url(#path-81-inside-7)"/>
<rect x="150" y="123" width="22" height="2" rx="1" fill="#3E2C73"/>
<rect x="187" y="109" width="22" height="2" rx="1" fill="#3E2C73"/>
<rect x="187" y="123" width="22" height="2" rx="1" fill="#3E2C73"/>
<rect x="224" y="109" width="22" height="2" rx="1" fill="#3E2C73"/>
<rect x="224" y="123" width="22" height="2" rx="1" fill="#3E2C73"/>
<rect x="261" y="109" width="22" height="2" rx="1" fill="#3E2C73"/>
<rect x="261" y="123" width="22" height="2" rx="1" fill="#3E2C73"/>
<rect x="298" y="109" width="22" height="2" rx="1" fill="#3E2C73"/>
<rect x="298" y="123" width="22" height="2" rx="1" fill="#3E2C73"/>
<path d="M339 120C339 119.448 339.448 119 340 119H368V127H340C339.448 127 339 126.552 339 126V120Z" fill="#E1567C"/>
<rect x="341.375" y="120.375" width="36.25" height="7.25" rx="0.625" stroke="#3E2C73" stroke-width="0.75"/>
<path d="M24.235 127.815C24.1738 127.815 24.1136 127.799 24.06 127.77L22 126.69L19.94 127.77C19.8803 127.806 19.8121 127.825 19.7425 127.825C19.673 127.825 19.6047 127.806 19.545 127.77C19.4881 127.728 19.444 127.672 19.4175 127.606C19.391 127.541 19.3832 127.47 19.395 127.4L19.79 125.105L18.12 123.455C18.0698 123.406 18.0342 123.344 18.0175 123.276C18.0008 123.208 18.0035 123.136 18.0254 123.07C18.0473 123.003 18.0874 122.944 18.1413 122.899C18.1951 122.854 18.2605 122.825 18.33 122.815L20.635 122.5L21.665 120.395C21.6996 120.337 21.7486 120.289 21.8074 120.256C21.8661 120.222 21.9325 120.205 22 120.205C22.0675 120.205 22.1339 120.222 22.1927 120.256C22.2514 120.289 22.3004 120.337 22.335 120.395L23.365 122.5L25.67 122.835C25.7395 122.845 25.8049 122.874 25.8587 122.919C25.9126 122.964 25.9527 123.023 25.9746 123.09C25.9965 123.156 25.9992 123.228 25.9825 123.296C25.9658 123.364 25.9303 123.426 25.88 123.475L24.21 125.1L24.605 127.395C24.6168 127.465 24.609 127.536 24.5825 127.601C24.556 127.667 24.5119 127.723 24.455 127.765C24.3881 127.803 24.3116 127.82 24.235 127.815V127.815ZM22 125.89C22.0605 125.891 22.1202 125.904 22.175 125.93L23.735 126.755L23.44 125C23.4293 124.94 23.4332 124.878 23.4515 124.82C23.4698 124.761 23.5019 124.708 23.545 124.665L24.81 123.45L23.065 123.195C23.0052 123.188 22.948 123.167 22.8984 123.133C22.8487 123.099 22.8081 123.053 22.78 123L22 121.41L21.22 123C21.1932 123.055 21.1531 123.103 21.1034 123.138C21.0536 123.174 20.9958 123.197 20.935 123.205L19.19 123.45L20.455 124.68C20.4975 124.724 20.5291 124.777 20.5473 124.835C20.5656 124.893 20.5699 124.955 20.56 125.015L20.265 126.755L21.825 125.93C21.8798 125.904 21.9395 125.891 22 125.89V125.89Z" fill="#C1B2DD"/>
</svg>
