<svg width="470" height="100" viewBox="0 0 470 100" fill="none" xmlns="http://www.w3.org/2000/svg">
<path d="M7.23393 68.7667L6.30802 73.2104C6.1422 74.0063 5.48202 74.6044 4.67371 74.691C3.7218 74.7931 3 75.5964 3 76.5538V89C3 90.1046 3.89543 91 5 91H467C468.105 91 469 90.1046 469 89V36.1019C469 34.5134 467.123 33.6712 465.936 34.7274C465.851 34.8033 465.773 34.8868 465.703 34.9771L462.836 38.6906C462.691 38.8783 462.513 39.0387 462.312 39.1644L455.98 43.1201C455.865 43.1919 455.758 43.2753 455.66 43.3689L454.326 44.6403C453.593 45.3395 452.453 45.38 451.672 44.7346L451.047 44.2178C450.342 43.6355 449.333 43.6049 448.594 44.1434L446.759 45.482C446.416 45.7316 446.004 45.8661 445.58 45.8661H442.714C442.37 45.8661 442.031 45.7772 441.732 45.6079L438.766 43.9345C437.746 43.3587 436.451 43.7794 435.964 44.8449L434.059 49.0131C433.308 50.6567 430.935 50.5402 430.348 48.8309L429.463 46.2499C428.838 44.4296 426.254 44.4556 425.666 46.2882L423.411 53.3193C423.055 54.43 421.633 54.7437 420.842 53.886C420.035 53.0103 418.58 53.3589 418.257 54.5054L415.214 65.3201C414.664 67.2747 411.888 67.2605 411.358 65.3004L411.019 64.047C410.48 62.0525 407.639 62.0858 407.146 64.0924L406.216 67.8833C406.059 68.5234 405.596 69.045 404.98 69.2777L403.423 69.8654C403.103 69.9861 402.757 70.0228 402.419 69.9721L400.16 69.6328C399.991 69.6074 399.819 69.6038 399.649 69.622L396.875 69.9195L394.101 70.1931C393.931 70.2099 393.76 70.2048 393.592 70.1781L390.816 69.7376L388.389 69.2796C387.996 69.2054 387.59 69.2507 387.223 69.4097L384.756 70.4783L381.986 71.7612C381.814 71.8411 381.631 71.896 381.443 71.9243L379.94 72.1498C379.18 72.2639 378.422 71.9321 377.989 71.2963L375.667 67.8793L374.835 66.6054C373.932 65.2225 371.836 65.4684 371.278 67.0228L369.965 70.677C369.741 71.3005 369.223 71.7726 368.581 71.9377L366.86 72.3806C366.673 72.4289 366.479 72.4497 366.285 72.4422L363.547 72.3365L360.518 72.0246L358.012 71.4122C357.669 71.3282 357.309 71.3368 356.97 71.4372L354.458 72.1806L351.428 72.7134L348.398 72.8563L345.369 72.8043L343.106 72.7461C342.612 72.7334 342.14 72.5383 341.782 72.1983L339.638 70.1661C339.421 69.961 339.253 69.7101 339.146 69.4317L338.391 67.4644C337.706 65.6808 335.149 65.7815 334.606 67.6134L333.662 70.7998C333.416 71.6308 332.663 72.2087 331.796 72.231L330.219 72.2716L327.66 72.557C327.351 72.5915 327.038 72.5534 326.746 72.4457L324.746 71.7079C324.364 71.5672 323.949 71.5461 323.555 71.6475L321.637 72.1411C321.305 72.2266 320.956 72.2252 320.624 72.1371L318.623 71.6047C318.281 71.5138 317.92 71.5152 317.579 71.6089L315.07 72.2975L312.54 72.6774C312.212 72.7266 311.877 72.6935 311.565 72.5811L309.636 71.8859C309.23 71.7398 308.788 71.7287 308.375 71.8543L307.675 72.0677C306.708 72.3621 305.673 71.8889 305.264 70.9649L303.068 66.011C302.99 65.8367 302.938 65.6521 302.913 65.4631L300.774 49.3014C300.595 47.9506 298.681 47.8429 298.352 49.165C298.027 50.4689 296.148 50.3889 295.935 49.0621L295.351 45.4205C295.011 43.2985 292.013 43.1506 291.465 45.2288L290.832 47.6334L287.965 54.7036C287.858 54.9684 287.695 55.2071 287.487 55.4036L286.244 56.5819C285.435 57.3493 284.154 57.3061 283.398 56.4857L282.627 55.6497C282.09 55.0663 281.258 54.8558 280.508 55.1133L278.861 55.6783C278.762 55.7121 278.661 55.7382 278.558 55.7563L276.353 56.144C275.919 56.2205 275.471 56.151 275.08 55.9463L273.089 54.9045C272.803 54.7548 272.557 54.538 272.373 54.2726L269.872 50.6689C269.708 50.4326 269.495 50.2345 269.248 50.088L266.77 48.6212C266.652 48.5519 266.529 48.4948 266.4 48.4506L265.496 48.1406C264.436 47.7767 263.283 48.3557 262.942 49.4238L261.177 54.9497C260.828 56.0434 259.631 56.6191 258.559 56.2097L258.003 55.9976C257.676 55.8728 257.322 55.836 256.976 55.8908L254.851 56.2282C254.602 56.2677 254.348 56.2598 254.102 56.2049L251.813 55.6944C251.569 55.6401 251.338 55.5407 251.131 55.4013L248.672 53.7452C248.501 53.6304 248.35 53.49 248.222 53.329L245.543 49.9505C245.438 49.8184 245.35 49.6736 245.282 49.5195L243.518 45.5475C242.953 44.2766 241.296 43.9554 240.298 44.9232L239.568 45.6311C239.407 45.7867 239.274 45.968 239.173 46.1676L236.389 51.6969C236.327 51.8204 236.252 51.9372 236.166 52.0453L235.946 52.3204C234.885 53.6488 232.756 53.1321 232.422 51.4653L230.908 43.9094C230.61 42.4189 228.808 41.8124 227.669 42.8189C227.368 43.0853 227.155 43.4376 227.059 43.8285L224.38 54.7892C224.25 55.3229 223.906 55.7794 223.429 56.0516L221.463 57.1726C221.254 57.2922 221.024 57.3729 220.786 57.4107L218.294 57.8062C218.176 57.8249 218.057 57.833 217.937 57.8305L215.362 57.7752C215.179 57.7713 214.997 57.7924 214.82 57.8379L212.323 58.4805C212.146 58.526 211.964 58.547 211.782 58.5431L209.027 58.484L206.359 58.6213C206.12 58.6337 205.88 58.6028 205.652 58.5303L204.572 58.1875C203.645 57.8933 202.64 58.3088 202.192 59.1721L199.938 63.513L198.099 67.5105C197.52 68.7706 195.865 69.0727 194.878 68.0987L193.878 67.1126L192.967 66.4129C191.908 65.6002 190.366 66.0325 189.884 67.277L188.537 70.7534C188.14 71.7799 186.987 72.2922 185.959 71.8996L185.518 71.7312C185.049 71.5522 184.53 71.5561 184.064 71.7421L182.349 72.426C181.965 72.5791 181.543 72.6095 181.141 72.513L178.968 71.991C178.809 71.9529 178.647 71.9344 178.483 71.9358L175.699 71.9597L172.669 72.2455L169.64 72.7134L167.281 73.1584C166.846 73.2406 166.396 73.1759 166.001 72.9745L163.58 71.7387L161.006 70.6236C160.706 70.494 160.444 70.2933 160.24 70.0389L157.707 66.8781C157.583 66.7234 157.437 66.588 157.273 66.4763L156.616 66.028C155.538 65.293 154.056 65.77 153.61 66.9958L151.883 71.7352C151.624 72.4463 150.986 72.9503 150.234 73.0373L148.737 73.2107C148.534 73.2342 148.329 73.2265 148.128 73.1877L145.572 72.6944C145.458 72.6724 145.343 72.6604 145.227 72.6584L142.371 72.6094L139.931 72.6513C139.546 72.6579 139.168 72.5532 138.841 72.3499L136.812 71.0886C136.486 70.8853 136.107 70.7807 135.722 70.7873L133.282 70.8291L130.252 70.8421L127.964 70.8912C127.485 70.9014 127.019 70.7398 126.65 70.4355L124.555 68.7107C124.316 68.5143 124.036 68.3758 123.735 68.3061L122.019 67.9087C121.473 67.7823 121.006 67.4328 120.73 66.9453L120.229 66.0613C119.395 64.5875 117.221 64.7525 116.619 66.3353L115.515 69.2396C115.26 69.9093 114.667 70.3916 113.959 70.5039L112.263 70.773C112.137 70.793 112.009 70.8009 111.881 70.7965L109.578 70.7175C109.228 70.7055 108.88 70.7859 108.571 70.9506L106.613 71.9917C106.224 72.1985 105.778 72.2712 105.344 72.1985L103.224 71.844C103.065 71.8173 102.902 71.81 102.74 71.8225L100.129 72.0242C100.012 72.0331 99.8971 72.0523 99.7842 72.0813L96.9241 72.8173L94.0808 73.4149C93.9568 73.4409 93.8305 73.4552 93.7038 73.4573L90.8645 73.506L88.8963 73.3794C88.2326 73.3367 87.6335 72.9669 87.298 72.3926L84.9172 68.3184C84.8425 68.1907 84.7539 68.0716 84.653 67.9634L83.9951 67.2579C82.978 66.1673 81.168 66.5334 80.6547 67.9336L79.3759 71.4219C79.019 72.3954 77.9774 72.9347 76.9764 72.6642L76.0351 72.4099C75.8234 72.3527 75.6038 72.3307 75.385 72.3448L72.6856 72.5184L69.6558 72.6224L66.8508 72.6465C66.7014 72.6477 66.5523 72.6323 66.4063 72.6003L64.0983 72.0955C63.7689 72.0234 63.4267 72.0358 63.1034 72.1315L60.7363 72.832C60.6232 72.8655 60.5075 72.8889 60.3904 72.9019L57.7838 73.1926C57.6196 73.2109 57.4538 73.2088 57.2902 73.1863L54.5068 72.8043L51.477 72.7394L50.1593 72.8354C49.1744 72.9072 48.2845 72.2495 48.0643 71.2868L47.3803 68.2975C46.9055 66.2224 43.9484 66.2268 43.4797 68.3032L42.7365 71.5962C42.532 72.5019 41.7312 73.1478 40.8027 73.1558L39.3577 73.1682L36.3279 72.8563L33.2981 72.9083L30.2683 72.8043L27.5443 72.4305C27.3416 72.4027 27.1358 72.4061 26.9342 72.4407L24.2086 72.9083L21.1789 73.2072L18.1491 73.4541L15.322 73.3934C15.1872 73.3906 15.053 73.374 14.9215 73.3442L13.3027 72.9762C12.5599 72.8073 11.9775 72.2311 11.8006 71.4902L11.1372 68.7104C10.6413 66.6322 7.66974 66.675 7.23393 68.7667Z" fill="#3E2C73"/>
<path d="M465.679 95.4034L1 97.2424" stroke="#3E2C73" stroke-width="0.75"/>
<path d="M3.15991 95L469 98.2424" stroke="#FF7738" stroke-width="1.5"/>
<line x1="276.5" y1="-2.18557e-08" x2="276.5" y2="100" stroke="#FF7738"/>
<circle cx="276.5" cy="55.5" r="3" fill="white" stroke="#FF7738"/>
</svg>
