<svg width="359" height="194" viewBox="0 0 359 194" fill="none" xmlns="http://www.w3.org/2000/svg">
<path d="M218.984 116.13L218.094 4.98398C218.085 3.8857 217.192 3 216.094 3H7.12399C6.02711 3 5.1349 3.88345 5.12408 4.98028L4.01999 116.972C4.009 118.088 4.91252 118.996 6.02792 118.992L216.992 118.146C218.1 118.141 218.993 117.237 218.984 116.13Z" fill="white"/>
<rect y="39" width="224" height="57" fill="#EDE7F5"/>
<rect x="191" y="12" width="18" height="18" rx="2" fill="#C1B2DD"/>
<rect x="18" y="16" width="105" height="3" rx="1.5" fill="#3E2C73"/>
<rect x="18" y="23" width="65" height="3" rx="1.5" fill="#C1B2DD"/>
<rect x="18" y="106" width="30" height="2" rx="1" fill="#C1B2DD"/>
<rect x="53" y="106" width="70" height="2" rx="1" fill="#C1B2DD"/>
<path d="M214.709 87.493L219 88.359V94H3.99998V81.1916L8.75803 83.0936L13.0486 84.029L17.3392 82.4701L21.6299 82.3315L25.9206 82.4701L30.2113 77.4472L34.5019 77.5858L38.7926 77.6204L43.0832 77.7936L47.3739 71.1426L51.6645 69.272L55.9552 55L60.2458 76.2348L64.5365 77.5165L68.8271 77.2393L73.1177 81.5348L77.4084 80.1838L81.6991 80.8074L85.9897 82.8858L90.2804 84.5832L94.571 84.7218L98.8617 84.2021L103.152 70.3805L107.443 61.7203L111.734 83.7518L116.024 81.5694L120.315 82.089L124.606 82.3662L128.896 82.4355L133.187 80.6688L137.478 83.059L141.768 83.9596L146.059 82.8511L150.35 82.678L154.64 83.2668L158.633 70.3805L163.222 83.7518L167.512 83.8211L171.803 82.9897L176.093 83.1282L180.384 82.8511L184.675 81.7427L188.965 83.1282L193.256 83.925L197.547 84.5832L201.837 84.41L206.128 82.574L213.053 80.8074L214.709 87.493Z" fill="#3E2C73"/>
<path d="M218.984 116.13L218.094 4.98398C218.085 3.8857 217.192 3 216.094 3H7.12399C6.02711 3 5.1349 3.88345 5.12408 4.98028L4.01999 116.972C4.009 118.088 4.91252 118.996 6.02792 118.992L216.992 118.146C218.1 118.141 218.993 117.237 218.984 116.13Z" stroke="#3E2C73" stroke-width="0.75"/>
<path d="M2.99385 116.263L2.01739 3.01724C2.00781 1.90598 2.90601 1 4.01732 1H218.462C219.563 1 220.457 1.88989 220.462 2.99089L220.991 118.965C220.996 120.083 220.083 120.988 218.965 120.974L4.96829 118.246C3.88046 118.232 3.00323 117.351 2.99385 116.263Z" stroke="#FF7738" stroke-width="1.5"/>
<path d="M353.984 150.13L353.094 38.984C353.085 37.8857 352.192 37 351.094 37H142.124C141.027 37 140.135 37.8835 140.124 38.9803L139.02 150.972C139.009 152.088 139.913 152.996 141.028 152.992L351.992 152.146C353.1 152.141 353.993 151.237 353.984 150.13Z" fill="white"/>
<rect x="135" y="73" width="224" height="57" fill="#EDE7F5"/>
<rect x="326" y="46" width="18" height="18" rx="2" fill="#5A4A79"/>
<rect x="153" y="50" width="105" height="3" rx="1.5" fill="#3E2C73"/>
<rect x="153" y="57" width="65" height="3" rx="1.5" fill="#C1B2DD"/>
<rect x="153" y="140" width="30" height="2" rx="1" fill="#C1B2DD"/>
<rect x="188" y="140" width="70" height="2" rx="1" fill="#C1B2DD"/>
<path d="M143.291 125.164L139 125.541V128H354V122.417L349.242 123.246L344.951 123.654L340.661 122.974L336.37 122.914L332.079 122.974L327.789 120.785L323.498 120.845L319.207 120.86L314.917 120.936L310.626 118.037L306.335 117.221L302.045 111L297.754 120.256L293.463 120.815L289.173 120.694L284.882 122.566L280.592 121.978L276.301 122.249L272.01 123.155L267.72 123.895L263.429 123.956L259.138 123.729L254.848 117.704L250.557 113.929L246.266 123.533L241.976 122.582L237.685 122.808L233.394 122.929L229.104 122.959L224.813 122.189L220.522 123.231L216.232 123.623L211.941 123.14L207.65 123.065L203.36 123.321L199.367 117.704L194.778 123.533L190.488 123.563L186.197 123.201L181.907 123.261L177.616 123.14L173.325 122.657L169.035 123.261L164.744 123.608L160.453 123.895L156.163 123.82L151.872 123.019L144.947 122.249L143.291 125.164Z" fill="#3E2C73"/>
<path d="M353.984 150.13L353.094 38.984C353.085 37.8857 352.192 37 351.094 37H142.124C141.027 37 140.135 37.8835 140.124 38.9803L139.02 150.972C139.009 152.088 139.913 152.996 141.028 152.992L351.992 152.146C353.1 152.141 353.993 151.237 353.984 150.13Z" stroke="#3E2C73" stroke-width="0.75"/>
<path d="M137.994 150.263L137.017 37.0172C137.008 35.906 137.906 35 139.017 35H353.462C354.563 35 355.457 35.8899 355.462 36.9909L355.991 152.965C355.996 154.083 355.083 154.988 353.965 154.974L139.968 152.246C138.88 152.232 138.003 151.351 137.994 150.263Z" stroke="#FF7738" stroke-width="1.5"/>
<path d="M255.984 188.13L255.094 76.984C255.085 75.8857 254.192 75 253.094 75H44.124C43.0271 75 42.1349 75.8835 42.1241 76.9803L41.02 188.972C41.009 190.088 41.9125 190.996 43.0279 190.992L253.992 190.146C255.1 190.141 255.993 189.237 255.984 188.13Z" fill="white"/>
<rect x="37" y="111" width="224" height="57" fill="#EDE7F5"/>
<rect x="228" y="84" width="18" height="18" rx="2" fill="#FF7738"/>
<rect x="55" y="88" width="105" height="3" rx="1.5" fill="#3E2C73"/>
<rect x="55" y="95" width="65" height="3" rx="1.5" fill="#C1B2DD"/>
<rect x="55" y="178" width="30" height="2" rx="1" fill="#C1B2DD"/>
<rect x="90" y="178" width="70" height="2" rx="1" fill="#C1B2DD"/>
<path d="M45.2907 159.493L41 160.359V166H256V153.192L251.242 155.094L246.951 156.029L242.661 154.47L238.37 154.332L234.079 154.47L229.789 149.447L225.498 149.586L221.207 149.62L216.917 149.794L212.626 143.143L208.335 141.272L204.045 127L199.754 148.235L195.463 149.516L191.173 149.239L186.882 153.535L182.592 152.184L178.301 152.807L174.01 154.886L169.72 156.583L165.429 156.722L161.138 156.202L156.848 142.38L152.557 133.72L148.266 155.752L143.976 153.569L139.685 154.089L135.394 154.366L131.104 154.435L126.813 152.669L122.522 155.059L118.232 155.96L113.941 154.851L109.65 154.678L105.36 155.267L101.367 142.38L96.7785 155.752L92.4878 155.821L88.1972 154.99L83.9065 155.128L79.6159 154.851L75.3252 153.743L71.0345 155.128L66.7439 155.925L62.4533 156.583L58.1626 156.41L53.872 154.574L46.9474 152.807L45.2907 159.493Z" fill="#3E2C73"/>
<path d="M255.984 188.13L255.094 76.984C255.085 75.8857 254.192 75 253.094 75H44.124C43.0271 75 42.1349 75.8835 42.1241 76.9803L41.02 188.972C41.009 190.088 41.9125 190.996 43.0279 190.992L253.992 190.146C255.1 190.141 255.993 189.237 255.984 188.13Z" stroke="#3E2C73" stroke-width="0.75"/>
<path d="M39.9939 188.263L39.0174 75.0172C39.0078 73.906 39.906 73 41.0173 73H255.462C256.563 73 257.457 73.8899 257.462 74.9909L257.991 190.965C257.996 192.083 257.083 192.988 255.965 192.974L41.9683 190.246C40.8805 190.232 40.0032 189.351 39.9939 188.263Z" stroke="#FF7738" stroke-width="1.5"/>
<rect x="189.375" y="10.375" width="17.25" height="17.25" rx="1.625" stroke="#3E2C73" stroke-width="0.75"/>
<rect x="324.375" y="44.375" width="17.25" height="17.25" rx="1.625" stroke="#3E2C73" stroke-width="0.75"/>
<rect x="226.375" y="82.375" width="17.25" height="17.25" rx="1.625" stroke="#3E2C73" stroke-width="0.75"/>
</svg>
