<svg width="470" height="100" viewBox="0 0 470 100" fill="none" xmlns="http://www.w3.org/2000/svg">
<path d="M465.679 94.161L1 96" stroke="#3E2C73" stroke-width="0.75"/>
<path d="M3.15991 93.7576L469 97" stroke="#FF7738" stroke-width="1.5"/>
<path d="M224.513 40.6805L226.523 28.4345C226.61 27.9061 226.934 27.4465 227.402 27.1871C228.568 26.541 230 27.3846 230 28.7179V88C230 89.1046 229.105 90 228 90H3C1.89543 90 1 89.1046 1 88V69.2069C1 68.3271 1.57497 67.5506 2.4165 67.2939L16.582 62.9733L37.0309 59.4649C37.2475 59.4277 37.4688 59.4265 37.6859 59.4613L58.7875 62.8466C59.2943 62.9279 59.8129 62.8113 60.236 62.5209L63.6392 60.1854C64.321 59.7174 65.2206 59.7174 65.9025 60.1854L69.7763 62.8439C69.9016 62.9299 70.0363 63.0013 70.1778 63.0568L74.5871 64.7859C75.4339 65.118 76.3981 64.8368 76.9337 64.1017L77.4603 63.3789C77.6543 63.1126 77.7796 62.8025 77.8248 62.4761L80.5638 42.7393C80.8789 40.469 84.1445 40.4268 84.5181 42.6882L86.7843 56.4036C86.9098 57.163 87.4599 57.783 88.199 57.998L92.5826 59.273C92.8893 59.3622 93.1702 59.5236 93.4017 59.7436L95.4229 61.6642C96.1949 62.3977 97.4063 62.3977 98.1783 61.6642L99.2689 60.6278C100.001 59.9318 101.138 59.8915 101.918 60.5338L103.152 61.5501C104.073 62.3088 105.45 62.0969 106.1 61.0962L108.257 57.7779C108.314 57.6902 108.364 57.5983 108.407 57.5028L111.056 51.5659C111.679 50.1682 113.663 50.1682 114.287 51.5659C115.026 53.2225 117.482 52.8262 117.663 51.0214L121.268 15.0065C121.501 12.6818 124.85 12.5744 125.232 14.8794L126.958 25.3187C127.157 26.5209 128.375 27.2674 129.537 26.8986L131.126 26.3937C132.227 26.044 133.394 26.6967 133.673 27.8176L134.513 31.2001C135.04 33.3193 138.097 33.1817 138.431 31.0238L140.753 16.0218C141.101 13.7717 144.338 13.7595 144.703 16.0069L147.851 35.3725C148.11 36.9648 150.288 37.231 150.923 35.7479C151.493 34.4154 153.395 34.4542 153.91 35.8087L156.271 42.0137C156.44 42.4553 156.758 42.8231 157.172 43.052L158.482 43.7777C159.295 44.2283 160.312 44.0586 160.935 43.3683L161.403 42.85C162.303 41.8535 163.909 42.0087 164.601 43.1589L166.55 46.397L167.33 48.1241C168.129 49.8959 170.731 49.6006 171.113 47.6947L173.229 37.1484L174.059 32.9339C174.502 30.6898 177.755 30.8254 178.009 33.0985L179.709 48.3184C179.822 49.3307 180.678 50.0964 181.697 50.0964H181.956C182.742 50.0964 183.455 49.6357 183.779 48.9191L186.056 43.8748C186.379 43.1582 187.092 42.6975 187.878 42.6975H188.765C189.483 42.6975 190.146 42.3126 190.502 41.6889L191.529 39.8898C192.296 38.545 194.235 38.545 195.003 39.8898L195.235 40.2974C195.91 41.4802 197.545 41.6571 198.457 40.6462L199.639 39.3374C199.84 39.1141 199.989 38.8481 200.073 38.5594L201.73 32.9043C202.256 31.1085 204.74 30.9541 205.484 32.6708L206.624 35.2987L208.819 41.3789C209.27 42.6267 210.975 42.7739 211.633 41.6217C212.29 40.4695 213.996 40.6166 214.447 41.8644L214.641 42.4022C215.249 44.0857 217.667 43.9718 218.114 42.2387L218.481 40.8166C218.881 39.2659 221.083 39.2659 221.483 40.8166C221.901 42.4404 224.242 42.3353 224.513 40.6805Z" fill="#C1B2DD"/>
<path d="M244.066 55.0355L241.093 64.4183C241.032 64.6137 241 64.8174 241 65.0224V67.5654V88C241 89.1046 241.895 90 243 90H467C468.105 90 469 89.1046 469 88V47.8017C469 47.6951 468.991 47.5886 468.974 47.4834L465.849 28.0989C465.752 27.498 465.387 26.974 464.857 26.6751L464.463 26.4532C463.382 25.8433 462.011 26.3564 461.596 27.5268L459.087 34.6002L455.783 42.0524L452.478 49.9608L449.701 56.2237C449.381 56.9468 448.664 57.413 447.873 57.413H446.395C446.05 57.413 445.712 57.3242 445.412 57.1552L443.547 56.1038C442.938 55.76 442.193 55.76 441.583 56.1038L440.243 56.8592C439.633 57.203 438.888 57.203 438.279 56.8592L436.939 56.1038C436.329 55.76 435.584 55.76 434.974 56.1038L433.634 56.8592C433.025 57.203 432.28 57.203 431.67 56.8592L430.33 56.1038C429.72 55.76 428.975 55.76 428.366 56.1038L426.501 57.1552C426.201 57.3242 425.863 57.413 425.519 57.413H422.739H420.613C419.817 57.413 419.096 57.8856 418.779 58.6161L416.653 63.51C416.336 64.2405 415.615 64.7131 414.819 64.7131H412.826H409.522H406.217H402.913H399.609H398.152C397.109 64.7131 396.241 63.911 396.159 62.8708L394.902 46.9796C394.707 44.5105 391.083 44.5291 390.913 47.0001L390.819 48.3626C390.658 50.7181 387.264 50.8975 386.854 48.5722L386.682 47.5947C386.514 46.6386 385.683 45.9414 384.713 45.9414H383.087H381.461C380.49 45.9414 379.66 46.6386 379.492 47.5947L376.769 63.0598C376.601 64.0159 375.77 64.7131 374.8 64.7131H374.315C373.608 64.7131 372.953 64.3397 372.593 63.731L371.591 62.036C370.817 60.7265 368.922 60.7265 368.148 62.036L367.146 63.731C366.786 64.3397 366.131 64.7131 365.424 64.7131H363.261H359.957H356.652H353.873C353.529 64.7131 353.19 64.6243 352.891 64.4553L351.026 63.4039C350.416 63.0601 349.671 63.0601 349.061 63.4039L347.196 64.4553C346.897 64.6243 346.558 64.7131 346.214 64.7131H343.435H340.13H336.826H334.986C334.114 64.7131 333.343 64.1483 333.079 63.3172L330.66 55.6803C330.396 54.8491 329.625 54.2844 328.753 54.2844H328.214C327.423 54.2844 326.706 53.8182 326.386 53.0951L325.437 50.9555C324.734 49.3698 322.483 49.3698 321.78 50.9555L320.832 53.0951C320.511 53.8182 319.794 54.2844 319.003 54.2844H317H313.696H310.391H307.087H303.783H300.478H297.174H293.87H290.565H287.786C287.442 54.2844 287.103 54.1956 286.804 54.0266L284.939 52.9752C284.329 52.6314 283.584 52.6314 282.974 52.9752L281.109 54.0266C280.81 54.1956 280.471 54.2844 280.127 54.2844H279.026C278.056 54.2844 277.225 53.5872 277.057 52.6311L274.334 37.1659C274.166 36.2098 273.336 35.5127 272.365 35.5127H270.739H269.046C268.106 35.5127 267.292 36.168 267.092 37.0871L265.931 42.4168C265.464 44.5627 262.381 44.4963 262.006 42.3322L260.987 36.4407C260.885 35.8534 260.525 35.3428 260.006 35.0501C258.801 34.3712 257.289 35.1003 257.071 36.4653L254.487 52.6006C254.332 53.5707 253.495 54.2844 252.512 54.2844H251.438C251.094 54.2844 250.756 54.1956 250.456 54.0266L248.591 52.9752C247.981 52.6314 247.236 52.6314 246.626 52.9752L244.991 53.8974C244.55 54.1461 244.219 54.5528 244.066 55.0355Z" fill="#E1567C"/>
<line x1="174.5" y1="-2.18557e-08" x2="174.5" y2="100" stroke="#3E2C73"/>
<line x1="415.5" y1="-2.18557e-08" x2="415.5" y2="100" stroke="#3E2C73"/>
<circle cx="415.5" cy="64.5" r="3" fill="white" stroke="#3E2C73"/>
<circle cx="174.5" cy="29.5" r="3" fill="white" stroke="#3E2C73"/>
</svg>
