<svg width="340" height="143" viewBox="0 0 340 143" fill="none" xmlns="http://www.w3.org/2000/svg">
<path d="M4 3C4 1.34315 5.34315 0 7 0H337C338.657 0 340 1.34315 340 3V24H4V3Z" fill="#C1B2DD"/>
<path d="M335.05 139.161L336 4H2.78955L1 141L335.05 139.161Z" stroke="#3E2C73" stroke-width="0.75"/>
<rect x="34" y="36" width="40" height="2" rx="1" fill="#3E2C73"/>
<rect x="105" y="36" width="26" height="2" rx="1" fill="#3E2C73"/>
<mask id="path-5-inside-1" fill="white">
<rect x="93" y="33" width="8" height="8" rx="1"/>
</mask>
<rect x="93" y="33" width="8" height="8" rx="1" stroke="#C1B2DD" stroke-width="3" mask="url(#path-5-inside-1)"/>
<rect x="150" y="36" width="22" height="2" rx="1" fill="#3E2C73"/>
<path d="M2.55533 138.758L1 2H337.159L338 142L2.55533 138.758Z" stroke="#FF7738" stroke-width="1.5"/>
<rect x="34" y="13" width="40" height="2" rx="1" fill="#5A4A79"/>
<rect x="93" y="13" width="31" height="2" rx="1" fill="#5A4A79"/>
<rect x="150" y="13" width="22" height="2" rx="1" fill="#5A4A79"/>
<path d="M22 37.935C21.9329 37.9337 21.8674 37.9148 21.81 37.88L18.195 35.795C18.1362 35.7634 18.0871 35.7166 18.0527 35.6594C18.0184 35.6021 18.0002 35.5367 18 35.47C18.0007 35.4046 18.018 35.3404 18.0504 35.2835C18.0828 35.2267 18.1291 35.179 18.185 35.145L21.81 33.06C21.8682 33.028 21.9336 33.0113 22 33.0113C22.0664 33.0113 22.1318 33.028 22.19 33.06L25.805 35.145C25.8609 35.179 25.9072 35.2267 25.9396 35.2835C25.972 35.3404 25.9893 35.4046 25.99 35.47C25.9908 35.5357 25.9741 35.6005 25.9416 35.6576C25.9091 35.7147 25.8619 35.7621 25.805 35.795L22.19 37.88C22.1326 37.9148 22.0671 37.9337 22 37.935V37.935ZM19.135 35.47L22 37.125L24.865 35.47L22 33.82L19.135 35.47Z" fill="#FF7738"/>
<path d="M22 39.465C21.9333 39.4655 21.8678 39.4483 21.81 39.415L18.195 37.33C18.1134 37.2792 18.0542 37.1993 18.0291 37.1066C18.0041 37.0138 18.0151 36.915 18.06 36.83C18.11 36.7475 18.1898 36.6875 18.283 36.6623C18.3761 36.6372 18.4753 36.6489 18.56 36.695L21.99 38.695L25.42 36.72C25.5047 36.6739 25.6039 36.6622 25.697 36.6873C25.7902 36.7125 25.87 36.7725 25.92 36.855C25.9649 36.94 25.9759 37.0388 25.9509 37.1316C25.9258 37.2243 25.8666 37.3042 25.785 37.355L22.19 39.415C22.1322 39.4483 22.0666 39.4655 22 39.465V39.465Z" fill="#FF7738"/>
<path d="M22 41C21.9329 40.9988 21.8674 40.9798 21.81 40.945L18.195 38.86C18.1088 38.8103 18.0459 38.7283 18.0201 38.6322C17.9943 38.5361 18.0078 38.4337 18.0575 38.3475C18.1072 38.2613 18.1892 38.1984 18.2853 38.1726C18.3814 38.1468 18.4838 38.1603 18.57 38.21L22 40.21L25.43 38.21C25.5162 38.1603 25.6186 38.1468 25.7147 38.1726C25.8108 38.1984 25.8928 38.2613 25.9425 38.3475C25.9922 38.4337 26.0057 38.5361 25.9799 38.6322C25.9541 38.7283 25.8912 38.8103 25.805 38.86L22.19 40.945C22.1326 40.9798 22.0671 40.9988 22 41V41Z" fill="#FF7738"/>
<path d="M22 14.935C21.9329 14.9337 21.8674 14.9148 21.81 14.88L18.195 12.795C18.1362 12.7634 18.0871 12.7166 18.0527 12.6594C18.0184 12.6021 18.0002 12.5367 18 12.47C18.0007 12.4046 18.018 12.3404 18.0504 12.2835C18.0828 12.2267 18.1291 12.179 18.185 12.145L21.81 10.06C21.8682 10.028 21.9336 10.0113 22 10.0113C22.0664 10.0113 22.1318 10.028 22.19 10.06L25.805 12.145C25.8609 12.179 25.9072 12.2267 25.9396 12.2835C25.972 12.3404 25.9893 12.4046 25.99 12.47C25.9908 12.5357 25.9741 12.6005 25.9416 12.6576C25.9091 12.7147 25.8619 12.7621 25.805 12.795L22.19 14.88C22.1326 14.9148 22.0671 14.9337 22 14.935V14.935ZM19.135 12.47L22 14.125L24.865 12.47L22 10.82L19.135 12.47Z" fill="#5A4A79"/>
<path d="M22 16.465C21.9333 16.4655 21.8678 16.4483 21.81 16.415L18.195 14.33C18.1134 14.2792 18.0542 14.1993 18.0291 14.1066C18.0041 14.0138 18.0151 13.915 18.06 13.83C18.11 13.7475 18.1898 13.6875 18.283 13.6623C18.3761 13.6372 18.4753 13.6489 18.56 13.695L21.99 15.695L25.42 13.72C25.5047 13.6739 25.6039 13.6622 25.697 13.6873C25.7902 13.7125 25.87 13.7725 25.92 13.855C25.9649 13.94 25.9759 14.0388 25.9509 14.1316C25.9258 14.2243 25.8666 14.3042 25.785 14.355L22.19 16.415C22.1322 16.4483 22.0666 16.4655 22 16.465V16.465Z" fill="#5A4A79"/>
<path d="M22 18C21.9329 17.9988 21.8674 17.9798 21.81 17.945L18.195 15.86C18.1088 15.8103 18.0459 15.7283 18.0201 15.6322C17.9943 15.5361 18.0078 15.4337 18.0575 15.3475C18.1072 15.2613 18.1892 15.1984 18.2853 15.1726C18.3814 15.1468 18.4838 15.1603 18.57 15.21L22 17.21L25.43 15.21C25.5162 15.1603 25.6186 15.1468 25.7147 15.1726C25.8108 15.1984 25.8928 15.2613 25.9425 15.3475C25.9922 15.4337 26.0057 15.5361 25.9799 15.6322C25.9541 15.7283 25.8912 15.8103 25.805 15.86L22.19 17.945C22.1326 17.9798 22.0671 17.9988 22 18V18Z" fill="#5A4A79"/>
<rect x="34" y="51" width="40" height="2" rx="1" fill="#3E2C73"/>
<rect x="105" y="51" width="26" height="2" rx="1" fill="#3E2C73"/>
<mask id="path-19-inside-2" fill="white">
<rect x="93" y="48" width="8" height="8" rx="1"/>
</mask>
<rect x="93" y="48" width="8" height="8" rx="1" stroke="#C1B2DD" stroke-width="3" mask="url(#path-19-inside-2)"/>
<rect x="150" y="51" width="22" height="2" rx="1" fill="#3E2C73"/>
<path d="M22 52.9351C21.9329 52.9338 21.8674 52.9148 21.81 52.8801L18.195 50.7951C18.1362 50.7635 18.0871 50.7166 18.0527 50.6594C18.0184 50.6022 18.0002 50.5368 18 50.4701C18.0007 50.4046 18.018 50.3404 18.0504 50.2836C18.0828 50.2267 18.1291 50.179 18.185 50.1451L21.81 48.0601C21.8682 48.0281 21.9336 48.0114 22 48.0114C22.0664 48.0114 22.1318 48.0281 22.19 48.0601L25.805 50.1451C25.8609 50.179 25.9072 50.2267 25.9396 50.2836C25.972 50.3404 25.9893 50.4046 25.99 50.4701C25.9908 50.5358 25.9741 50.6005 25.9416 50.6576C25.9091 50.7148 25.8619 50.7622 25.805 50.7951L22.19 52.8801C22.1326 52.9148 22.0671 52.9338 22 52.9351V52.9351ZM19.135 50.4701L22 52.1251L24.865 50.4701L22 48.8201L19.135 50.4701Z" fill="#FF7738"/>
<path d="M22 54.4651C21.9333 54.4656 21.8678 54.4483 21.81 54.4151L18.195 52.3301C18.1134 52.2792 18.0542 52.1994 18.0291 52.1066C18.0041 52.0138 18.0151 51.915 18.06 51.8301C18.11 51.7476 18.1898 51.6875 18.283 51.6624C18.3761 51.6372 18.4753 51.6489 18.56 51.6951L21.99 53.6951L25.42 51.7201C25.5047 51.6739 25.6039 51.6622 25.697 51.6874C25.7902 51.7125 25.87 51.7726 25.92 51.8551C25.9649 51.94 25.9759 52.0388 25.9509 52.1316C25.9258 52.2244 25.8666 52.3042 25.785 52.3551L22.19 54.4151C22.1322 54.4483 22.0666 54.4656 22 54.4651V54.4651Z" fill="#FF7738"/>
<path d="M22 56C21.9329 55.9988 21.8674 55.9798 21.81 55.945L18.195 53.86C18.1088 53.8103 18.0459 53.7283 18.0201 53.6322C17.9943 53.5361 18.0078 53.4337 18.0575 53.3475C18.1072 53.2613 18.1892 53.1984 18.2853 53.1726C18.3814 53.1468 18.4838 53.1603 18.57 53.21L22 55.21L25.43 53.21C25.5162 53.1603 25.6186 53.1468 25.7147 53.1726C25.8108 53.1984 25.8928 53.2613 25.9425 53.3475C25.9922 53.4337 26.0057 53.5361 25.9799 53.6322C25.9541 53.7283 25.8912 53.8103 25.805 53.86L22.19 55.945C22.1326 55.9798 22.0671 55.9988 22 56V56Z" fill="#FF7738"/>
<rect x="34" y="65" width="40" height="2" rx="1" fill="#3E2C73"/>
<rect x="105" y="65" width="26" height="2" rx="1" fill="#3E2C73"/>
<mask id="path-26-inside-3" fill="white">
<rect x="93" y="62" width="8" height="8" rx="1"/>
</mask>
<rect x="93" y="62" width="8" height="8" rx="1" stroke="#C1B2DD" stroke-width="3" mask="url(#path-26-inside-3)"/>
<rect x="150" y="65" width="22" height="2" rx="1" fill="#3E2C73"/>
<rect x="187" y="36" width="22" height="2" rx="1" fill="#3E2C73"/>
<rect x="187" y="13" width="22" height="2" rx="1" fill="#5A4A79"/>
<rect x="187" y="51" width="22" height="2" rx="1" fill="#3E2C73"/>
<rect x="187" y="65" width="22" height="2" rx="1" fill="#3E2C73"/>
<rect x="224" y="36" width="22" height="2" rx="1" fill="#3E2C73"/>
<rect x="224" y="13" width="22" height="2" rx="1" fill="#5A4A79"/>
<rect x="224" y="51" width="22" height="2" rx="1" fill="#3E2C73"/>
<rect x="224" y="65" width="22" height="2" rx="1" fill="#3E2C73"/>
<rect x="261" y="36" width="22" height="2" rx="1" fill="#3E2C73"/>
<rect x="261" y="13" width="22" height="2" rx="1" fill="#5A4A79"/>
<rect x="261" y="51" width="22" height="2" rx="1" fill="#3E2C73"/>
<rect x="261" y="65" width="22" height="2" rx="1" fill="#3E2C73"/>
<rect x="298" y="36" width="22" height="2" rx="1" fill="#3E2C73"/>
<rect x="298" y="13" width="22" height="2" rx="1" fill="#5A4A79"/>
<rect x="298" y="51" width="22" height="2" rx="1" fill="#3E2C73"/>
<rect x="298" y="65" width="22" height="2" rx="1" fill="#3E2C73"/>
<path d="M22 66.9351C21.9329 66.9338 21.8674 66.9148 21.81 66.8801L18.195 64.7951C18.1362 64.7635 18.0871 64.7166 18.0527 64.6594C18.0184 64.6022 18.0002 64.5368 18 64.4701C18.0007 64.4046 18.018 64.3404 18.0504 64.2836C18.0828 64.2267 18.1291 64.179 18.185 64.1451L21.81 62.0601C21.8682 62.0281 21.9336 62.0114 22 62.0114C22.0664 62.0114 22.1318 62.0281 22.19 62.0601L25.805 64.1451C25.8609 64.179 25.9072 64.2267 25.9396 64.2836C25.972 64.3404 25.9893 64.4046 25.99 64.4701C25.9908 64.5358 25.9741 64.6005 25.9416 64.6576C25.9091 64.7148 25.8619 64.7622 25.805 64.7951L22.19 66.8801C22.1326 66.9148 22.0671 66.9338 22 66.9351V66.9351ZM19.135 64.4701L22 66.1251L24.865 64.4701L22 62.8201L19.135 64.4701Z" fill="#FF7738"/>
<path d="M22 68.4651C21.9333 68.4656 21.8678 68.4483 21.81 68.4151L18.195 66.3301C18.1134 66.2792 18.0542 66.1994 18.0291 66.1066C18.0041 66.0138 18.0151 65.915 18.06 65.8301C18.11 65.7476 18.1898 65.6875 18.283 65.6624C18.3761 65.6372 18.4753 65.6489 18.56 65.6951L21.99 67.6951L25.42 65.7201C25.5047 65.6739 25.6039 65.6622 25.697 65.6874C25.7902 65.7125 25.87 65.7726 25.92 65.8551C25.9649 65.94 25.9759 66.0388 25.9509 66.1316C25.9258 66.2244 25.8666 66.3042 25.785 66.3551L22.19 68.4151C22.1322 68.4483 22.0666 68.4656 22 68.4651V68.4651Z" fill="#FF7738"/>
<path d="M22 70C21.9329 69.9988 21.8674 69.9798 21.81 69.945L18.195 67.86C18.1088 67.8103 18.0459 67.7283 18.0201 67.6322C17.9943 67.5361 18.0078 67.4337 18.0575 67.3475C18.1072 67.2613 18.1892 67.1984 18.2853 67.1726C18.3814 67.1468 18.4838 67.1603 18.57 67.21L22 69.21L25.43 67.21C25.5162 67.1603 25.6186 67.1468 25.7147 67.1726C25.8108 67.1984 25.8928 67.2613 25.9425 67.3475C25.9922 67.4337 26.0057 67.5361 25.9799 67.6322C25.9541 67.7283 25.8912 67.8103 25.805 67.86L22.19 69.945C22.1326 69.9798 22.0671 69.9988 22 70V70Z" fill="#FF7738"/>
<rect x="34" y="80" width="40" height="2" rx="1" fill="#3E2C73"/>
<rect x="105" y="80" width="26" height="2" rx="1" fill="#3E2C73"/>
<mask id="path-49-inside-4" fill="white">
<rect x="93" y="77" width="8" height="8" rx="1"/>
</mask>
<rect x="93" y="77" width="8" height="8" rx="1" stroke="#C1B2DD" stroke-width="3" mask="url(#path-49-inside-4)"/>
<rect x="150" y="80" width="22" height="2" rx="1" fill="#3E2C73"/>
<path d="M22 81.9351C21.9329 81.9338 21.8674 81.9148 21.81 81.8801L18.195 79.7951C18.1362 79.7635 18.0871 79.7166 18.0527 79.6594C18.0184 79.6022 18.0002 79.5368 18 79.4701C18.0007 79.4046 18.018 79.3404 18.0504 79.2836C18.0828 79.2267 18.1291 79.179 18.185 79.1451L21.81 77.0601C21.8682 77.0281 21.9336 77.0114 22 77.0114C22.0664 77.0114 22.1318 77.0281 22.19 77.0601L25.805 79.1451C25.8609 79.179 25.9072 79.2267 25.9396 79.2836C25.972 79.3404 25.9893 79.4046 25.99 79.4701C25.9908 79.5358 25.9741 79.6005 25.9416 79.6576C25.9091 79.7148 25.8619 79.7622 25.805 79.7951L22.19 81.8801C22.1326 81.9148 22.0671 81.9338 22 81.9351V81.9351ZM19.135 79.4701L22 81.1251L24.865 79.4701L22 77.8201L19.135 79.4701Z" fill="#FF7738"/>
<path d="M22 83.4651C21.9333 83.4656 21.8678 83.4483 21.81 83.4151L18.195 81.3301C18.1134 81.2792 18.0542 81.1994 18.0291 81.1066C18.0041 81.0138 18.0151 80.915 18.06 80.8301C18.11 80.7476 18.1898 80.6875 18.283 80.6624C18.3761 80.6372 18.4753 80.6489 18.56 80.6951L21.99 82.6951L25.42 80.7201C25.5047 80.6739 25.6039 80.6622 25.697 80.6874C25.7902 80.7125 25.87 80.7726 25.92 80.8551C25.9649 80.94 25.9759 81.0388 25.9509 81.1316C25.9258 81.2244 25.8666 81.3042 25.785 81.3551L22.19 83.4151C22.1322 83.4483 22.0666 83.4656 22 83.4651V83.4651Z" fill="#FF7738"/>
<path d="M22 85C21.9329 84.9988 21.8674 84.9798 21.81 84.945L18.195 82.86C18.1088 82.8103 18.0459 82.7283 18.0201 82.6322C17.9943 82.5361 18.0078 82.4337 18.0575 82.3475C18.1072 82.2613 18.1892 82.1984 18.2853 82.1726C18.3814 82.1468 18.4838 82.1603 18.57 82.21L22 84.21L25.43 82.21C25.5162 82.1603 25.6186 82.1468 25.7147 82.1726C25.8108 82.1984 25.8928 82.2613 25.9425 82.3475C25.9922 82.4337 26.0057 82.5361 25.9799 82.6322C25.9541 82.7283 25.8912 82.8103 25.805 82.86L22.19 84.945C22.1326 84.9798 22.0671 84.9988 22 85V85Z" fill="#FF7738"/>
<rect x="34" y="94" width="40" height="2" rx="1" fill="#3E2C73"/>
<rect x="105" y="94" width="26" height="2" rx="1" fill="#3E2C73"/>
<mask id="path-56-inside-5" fill="white">
<rect x="93" y="91" width="8" height="8" rx="1"/>
</mask>
<rect x="93" y="91" width="8" height="8" rx="1" stroke="#C1B2DD" stroke-width="3" mask="url(#path-56-inside-5)"/>
<rect x="150" y="94" width="22" height="2" rx="1" fill="#3E2C73"/>
<rect x="187" y="80" width="22" height="2" rx="1" fill="#3E2C73"/>
<rect x="187" y="94" width="22" height="2" rx="1" fill="#3E2C73"/>
<rect x="224" y="80" width="22" height="2" rx="1" fill="#3E2C73"/>
<rect x="224" y="94" width="22" height="2" rx="1" fill="#3E2C73"/>
<rect x="261" y="80" width="22" height="2" rx="1" fill="#3E2C73"/>
<rect x="261" y="94" width="22" height="2" rx="1" fill="#3E2C73"/>
<rect x="298" y="80" width="22" height="2" rx="1" fill="#3E2C73"/>
<rect x="298" y="94" width="22" height="2" rx="1" fill="#3E2C73"/>
<path d="M22 95.9351C21.9329 95.9338 21.8674 95.9148 21.81 95.8801L18.195 93.7951C18.1362 93.7635 18.0871 93.7166 18.0527 93.6594C18.0184 93.6022 18.0002 93.5368 18 93.4701C18.0007 93.4046 18.018 93.3404 18.0504 93.2836C18.0828 93.2267 18.1291 93.179 18.185 93.1451L21.81 91.0601C21.8682 91.0281 21.9336 91.0114 22 91.0114C22.0664 91.0114 22.1318 91.0281 22.19 91.0601L25.805 93.1451C25.8609 93.179 25.9072 93.2267 25.9396 93.2836C25.972 93.3404 25.9893 93.4046 25.99 93.4701C25.9908 93.5358 25.9741 93.6005 25.9416 93.6576C25.9091 93.7148 25.8619 93.7622 25.805 93.7951L22.19 95.8801C22.1326 95.9148 22.0671 95.9338 22 95.9351V95.9351ZM19.135 93.4701L22 95.1251L24.865 93.4701L22 91.8201L19.135 93.4701Z" fill="#FF7738"/>
<path d="M22 97.4651C21.9333 97.4656 21.8678 97.4483 21.81 97.4151L18.195 95.3301C18.1134 95.2792 18.0542 95.1994 18.0291 95.1066C18.0041 95.0138 18.0151 94.915 18.06 94.8301C18.11 94.7476 18.1898 94.6875 18.283 94.6624C18.3761 94.6372 18.4753 94.6489 18.56 94.6951L21.99 96.6951L25.42 94.7201C25.5047 94.6739 25.6039 94.6622 25.697 94.6874C25.7902 94.7125 25.87 94.7726 25.92 94.8551C25.9649 94.94 25.9759 95.0388 25.9509 95.1316C25.9258 95.2244 25.8666 95.3042 25.785 95.3551L22.19 97.4151C22.1322 97.4483 22.0666 97.4656 22 97.4651V97.4651Z" fill="#FF7738"/>
<path d="M22 99C21.9329 98.9988 21.8674 98.9798 21.81 98.945L18.195 96.86C18.1088 96.8103 18.0459 96.7283 18.0201 96.6322C17.9943 96.5361 18.0078 96.4337 18.0575 96.3475C18.1072 96.2613 18.1892 96.1984 18.2853 96.1726C18.3814 96.1468 18.4838 96.1603 18.57 96.21L22 98.21L25.43 96.21C25.5162 96.1603 25.6186 96.1468 25.7147 96.1726C25.8108 96.1984 25.8928 96.2613 25.9425 96.3475C25.9922 96.4337 26.0057 96.5361 25.9799 96.6322C25.9541 96.7283 25.8912 96.8103 25.805 96.86L22.19 98.945C22.1326 98.9798 22.0671 98.9988 22 99V99Z" fill="#FF7738"/>
<rect x="34" y="109" width="40" height="2" rx="1" fill="#3E2C73"/>
<rect x="105" y="109" width="26" height="2" rx="1" fill="#3E2C73"/>
<mask id="path-71-inside-6" fill="white">
<rect x="93" y="106" width="8" height="8" rx="1"/>
</mask>
<rect x="93" y="106" width="8" height="8" rx="1" stroke="#C1B2DD" stroke-width="3" mask="url(#path-71-inside-6)"/>
<rect x="150" y="109" width="22" height="2" rx="1" fill="#3E2C73"/>
<path d="M22 110.935C21.9329 110.934 21.8674 110.915 21.81 110.88L18.195 108.795C18.1362 108.763 18.0871 108.717 18.0527 108.659C18.0184 108.602 18.0002 108.537 18 108.47C18.0007 108.405 18.018 108.34 18.0504 108.284C18.0828 108.227 18.1291 108.179 18.185 108.145L21.81 106.06C21.8682 106.028 21.9336 106.011 22 106.011C22.0664 106.011 22.1318 106.028 22.19 106.06L25.805 108.145C25.8609 108.179 25.9072 108.227 25.9396 108.284C25.972 108.34 25.9893 108.405 25.99 108.47C25.9908 108.536 25.9741 108.601 25.9416 108.658C25.9091 108.715 25.8619 108.762 25.805 108.795L22.19 110.88C22.1326 110.915 22.0671 110.934 22 110.935V110.935ZM19.135 108.47L22 110.125L24.865 108.47L22 106.82L19.135 108.47Z" fill="#FF7738"/>
<path d="M22 112.465C21.9333 112.466 21.8678 112.448 21.81 112.415L18.195 110.33C18.1134 110.279 18.0542 110.199 18.0291 110.107C18.0041 110.014 18.0151 109.915 18.06 109.83C18.11 109.748 18.1898 109.688 18.283 109.662C18.3761 109.637 18.4753 109.649 18.56 109.695L21.99 111.695L25.42 109.72C25.5047 109.674 25.6039 109.662 25.697 109.687C25.7902 109.713 25.87 109.773 25.92 109.855C25.9649 109.94 25.9759 110.039 25.9509 110.132C25.9258 110.224 25.8666 110.304 25.785 110.355L22.19 112.415C22.1322 112.448 22.0666 112.466 22 112.465V112.465Z" fill="#FF7738"/>
<path d="M22 114C21.9329 113.999 21.8674 113.98 21.81 113.945L18.195 111.86C18.1088 111.81 18.0459 111.728 18.0201 111.632C17.9943 111.536 18.0078 111.434 18.0575 111.347C18.1072 111.261 18.1892 111.198 18.2853 111.173C18.3814 111.147 18.4838 111.16 18.57 111.21L22 113.21L25.43 111.21C25.5162 111.16 25.6186 111.147 25.7147 111.173C25.8108 111.198 25.8928 111.261 25.9425 111.347C25.9922 111.434 26.0057 111.536 25.9799 111.632C25.9541 111.728 25.8912 111.81 25.805 111.86L22.19 113.945C22.1326 113.98 22.0671 113.999 22 114V114Z" fill="#FF7738"/>
<rect x="34" y="123" width="40" height="2" rx="1" fill="#3E2C73"/>
<rect x="105" y="123" width="26" height="2" rx="1" fill="#3E2C73"/>
<mask id="path-78-inside-7" fill="white">
<rect x="93" y="120" width="8" height="8" rx="1"/>
</mask>
<rect x="93" y="120" width="8" height="8" rx="1" stroke="#C1B2DD" stroke-width="3" mask="url(#path-78-inside-7)"/>
<rect x="150" y="123" width="22" height="2" rx="1" fill="#3E2C73"/>
<rect x="187" y="109" width="22" height="2" rx="1" fill="#3E2C73"/>
<rect x="187" y="123" width="22" height="2" rx="1" fill="#3E2C73"/>
<rect x="224" y="109" width="22" height="2" rx="1" fill="#3E2C73"/>
<rect x="224" y="123" width="22" height="2" rx="1" fill="#3E2C73"/>
<rect x="261" y="109" width="22" height="2" rx="1" fill="#3E2C73"/>
<rect x="261" y="123" width="22" height="2" rx="1" fill="#3E2C73"/>
<rect x="298" y="109" width="22" height="2" rx="1" fill="#3E2C73"/>
<rect x="298" y="123" width="22" height="2" rx="1" fill="#3E2C73"/>
<path d="M22 124.935C21.9329 124.934 21.8674 124.915 21.81 124.88L18.195 122.795C18.1362 122.763 18.0871 122.717 18.0527 122.659C18.0184 122.602 18.0002 122.537 18 122.47C18.0007 122.405 18.018 122.34 18.0504 122.284C18.0828 122.227 18.1291 122.179 18.185 122.145L21.81 120.06C21.8682 120.028 21.9336 120.011 22 120.011C22.0664 120.011 22.1318 120.028 22.19 120.06L25.805 122.145C25.8609 122.179 25.9072 122.227 25.9396 122.284C25.972 122.34 25.9893 122.405 25.99 122.47C25.9908 122.536 25.9741 122.601 25.9416 122.658C25.9091 122.715 25.8619 122.762 25.805 122.795L22.19 124.88C22.1326 124.915 22.0671 124.934 22 124.935V124.935ZM19.135 122.47L22 124.125L24.865 122.47L22 120.82L19.135 122.47Z" fill="#FF7738"/>
<path d="M22 126.465C21.9333 126.466 21.8678 126.448 21.81 126.415L18.195 124.33C18.1134 124.279 18.0542 124.199 18.0291 124.107C18.0041 124.014 18.0151 123.915 18.06 123.83C18.11 123.748 18.1898 123.688 18.283 123.662C18.3761 123.637 18.4753 123.649 18.56 123.695L21.99 125.695L25.42 123.72C25.5047 123.674 25.6039 123.662 25.697 123.687C25.7902 123.713 25.87 123.773 25.92 123.855C25.9649 123.94 25.9759 124.039 25.9509 124.132C25.9258 124.224 25.8666 124.304 25.785 124.355L22.19 126.415C22.1322 126.448 22.0666 126.466 22 126.465V126.465Z" fill="#FF7738"/>
<path d="M22 128C21.9329 127.999 21.8674 127.98 21.81 127.945L18.195 125.86C18.1088 125.81 18.0459 125.728 18.0201 125.632C17.9943 125.536 18.0078 125.434 18.0575 125.347C18.1072 125.261 18.1892 125.198 18.2853 125.173C18.3814 125.147 18.4838 125.16 18.57 125.21L22 127.21L25.43 125.21C25.5162 125.16 25.6186 125.147 25.7147 125.173C25.8108 125.198 25.8928 125.261 25.9425 125.347C25.9922 125.434 26.0057 125.536 25.9799 125.632C25.9541 125.728 25.8912 125.81 25.805 125.86L22.19 127.945C22.1326 127.98 22.0671 127.999 22 128V128Z" fill="#FF7738"/>
</svg>
