<svg width="288" height="172" viewBox="0 0 288 172" fill="none" xmlns="http://www.w3.org/2000/svg">
<line y1="140.5" x2="288" y2="140.5" stroke="#3E2C73"/>
<path d="M5 7C5 5.34315 6.34315 4 8 4H283C284.657 4 286 5.34315 286 7V28H5V7Z" fill="#C1B2DD"/>
<rect x="29" y="16" width="46" height="2" rx="1" fill="#5A4A79"/>
<path d="M283.206 168.758L282 3H3.49576L2 170L283.206 168.758Z" stroke="#3E2C73" stroke-width="0.75"/>
<path d="M3.31072 167.063L2 1H285.291L286 171L3.31072 167.063Z" stroke="#FF7738" stroke-width="1.5"/>
<rect x="36" y="45" width="62" height="2" rx="1" fill="#3E2C73"/>
<rect x="36" y="63" width="28" height="2" rx="1" fill="#3E2C73"/>
<rect x="29.375" y="40.375" width="113.25" height="11.25" rx="0.625" stroke="#3E2C73" stroke-width="0.75"/>
<rect x="29.375" y="58.375" width="113.25" height="11.25" rx="0.625" stroke="#3E2C73" stroke-width="0.75"/>
<circle cx="17" cy="41" r="1" fill="#FF7738"/>
<circle cx="22" cy="41" r="1" fill="#FF7738"/>
<circle cx="17" cy="46" r="1" fill="#FF7738"/>
<circle cx="22" cy="46" r="1" fill="#FF7738"/>
<circle cx="17" cy="51" r="1" fill="#FF7738"/>
<circle cx="22" cy="51" r="1" fill="#FF7738"/>
<circle cx="17" cy="59" r="1" fill="#FF7738"/>
<circle cx="22" cy="59" r="1" fill="#FF7738"/>
<circle cx="17" cy="64" r="1" fill="#FF7738"/>
<circle cx="22" cy="64" r="1" fill="#FF7738"/>
<circle cx="17" cy="69" r="1" fill="#FF7738"/>
<circle cx="22" cy="69" r="1" fill="#FF7738"/>
<rect x="36" y="81" width="62" height="2" rx="1" fill="#3E2C73"/>
<rect x="36" y="99" width="40" height="2" rx="1" fill="#3E2C73"/>
<rect x="29.375" y="76.375" width="113.25" height="11.25" rx="0.625" stroke="#3E2C73" stroke-width="0.75"/>
<rect x="29.375" y="94.375" width="113.25" height="11.25" rx="0.625" stroke="#3E2C73" stroke-width="0.75"/>
<circle cx="17" cy="77" r="1" fill="#FF7738"/>
<circle cx="22" cy="77" r="1" fill="#FF7738"/>
<circle cx="17" cy="82" r="1" fill="#FF7738"/>
<circle cx="22" cy="82" r="1" fill="#FF7738"/>
<circle cx="17" cy="87" r="1" fill="#FF7738"/>
<circle cx="22" cy="87" r="1" fill="#FF7738"/>
<circle cx="17" cy="95" r="1" fill="#FF7738"/>
<circle cx="22" cy="95" r="1" fill="#FF7738"/>
<circle cx="17" cy="100" r="1" fill="#FF7738"/>
<circle cx="22" cy="100" r="1" fill="#FF7738"/>
<circle cx="17" cy="105" r="1" fill="#FF7738"/>
<circle cx="22" cy="105" r="1" fill="#FF7738"/>
<rect x="36" y="117" width="62" height="2" rx="1" fill="#3E2C73"/>
<rect x="29.375" y="112.375" width="113.25" height="11.25" rx="0.625" stroke="#3E2C73" stroke-width="0.75"/>
<rect x="153" y="45" width="32" height="2" rx="1" fill="#3E2C73"/>
<rect x="153" y="63" width="14" height="2" rx="1" fill="#3E2C73"/>
<rect x="149.375" y="40.375" width="115.25" height="11.25" rx="0.625" stroke="#3E2C73" stroke-width="0.75"/>
<rect x="149.375" y="58.375" width="115.25" height="11.25" rx="0.625" stroke="#3E2C73" stroke-width="0.75"/>
<rect x="153" y="81" width="32" height="2" rx="1" fill="#3E2C73"/>
<rect x="153" y="99" width="21" height="2" rx="1" fill="#3E2C73"/>
<rect x="149.375" y="76.375" width="115.25" height="11.25" rx="0.625" stroke="#3E2C73" stroke-width="0.75"/>
<rect x="149.375" y="94.375" width="115.25" height="11.25" rx="0.625" stroke="#3E2C73" stroke-width="0.75"/>
<rect x="153" y="117" width="32" height="2" rx="1" fill="#3E2C73"/>
<rect x="149.375" y="112.375" width="115.25" height="11.25" rx="0.625" stroke="#3E2C73" stroke-width="0.75"/>
<circle cx="17" cy="113" r="1" fill="#FF7738"/>
<circle cx="22" cy="113" r="1" fill="#FF7738"/>
<circle cx="17" cy="118" r="1" fill="#FF7738"/>
<circle cx="22" cy="118" r="1" fill="#FF7738"/>
<circle cx="17" cy="123" r="1" fill="#FF7738"/>
<circle cx="22" cy="123" r="1" fill="#FF7738"/>
<rect x="233" y="147" width="41.8064" height="14.371" rx="1" fill="#3E2C73"/>
<rect x="247.371" y="153.532" width="14.371" height="1.5" rx="0.75" fill="white"/>
<rect x="186" y="147" width="41.8064" height="14.371" rx="1" fill="#EDE7F5"/>
<rect x="200.371" y="153.532" width="14.371" height="1.5" rx="0.75" fill="#5A4A79"/>
</svg>
