<svg version="1.1" xmlns="http://www.w3.org/2000/svg" xmlns:xlink="http://www.w3.org/1999/xlink" x="0px" y="0px"
	 viewBox="0 0 470 100" style="enable-background:new 0 0 470 100;" xml:space="preserve">
	<style type="text/css">
		.st0{fill:#3E2C73;}
		.st1{fill:none;stroke:#3E2C73;stroke-width:0.75;}
		.st2{fill:none;stroke:#FF7738;stroke-width:1.5;}
		.st3{fill:#FFFFFF;stroke:#FF7738;stroke-width:1.5;}
		.st4{fill:none;}
	</style>
	<path class="st0" d="M7.2,68.8l-0.9,4.4c-0.2,0.8-0.8,1.4-1.6,1.5c-1,0.1-1.7,0.9-1.7,1.9V89c0,1.1,0.9,2,2,2h462c1.1,0,2-0.9,2-2
		V36.1c0-1.6-1.9-2.4-3.1-1.4c-0.1,0.1-0.2,0.2-0.2,0.2l-2.9,3.7c-0.1,0.2-0.3,0.3-0.5,0.5l-6.3,4c-0.1,0.1-0.2,0.2-0.3,0.2
		l-1.3,1.3c-0.7,0.7-1.9,0.7-2.7,0.1l-0.6-0.5c-0.7-0.6-1.7-0.6-2.5-0.1l-1.8,1.3c-0.3,0.2-0.8,0.4-1.2,0.4h-2.9
		c-0.3,0-0.7-0.1-1-0.3l-3-1.7c-1-0.6-2.3-0.2-2.8,0.9l-1.9,4.2c-0.8,1.6-3.1,1.5-3.7-0.2l-0.9-2.6c-0.6-1.8-3.2-1.8-3.8,0l-2.3,7
		c-0.4,1.1-1.8,1.4-2.6,0.6c-0.8-0.9-2.3-0.5-2.6,0.6l-3,10.8c-0.5,2-3.3,1.9-3.9,0L411,64c-0.5-2-3.4-2-3.9,0l-0.9,3.8
		c-0.2,0.6-0.6,1.2-1.2,1.4l-1.6,0.6c-0.3,0.1-0.7,0.2-1,0.1l-2.3-0.3c-0.2,0-0.3,0-0.5,0l-2.8,0.3l-2.8,0.3c-0.2,0-0.3,0-0.5,0
		l-2.8-0.4l-2.4-0.5c-0.4-0.1-0.8,0-1.2,0.1l-2.5,1.1l-2.8,1.3c-0.2,0.1-0.4,0.1-0.5,0.2l-1.5,0.2c-0.8,0.1-1.5-0.2-2-0.9l-2.3-3.4
		l-0.8-1.3c-0.9-1.4-3-1.1-3.6,0.4l-1.3,3.7c-0.2,0.6-0.7,1.1-1.4,1.3l-1.7,0.4c-0.2,0-0.4,0.1-0.6,0.1l-2.7-0.1l-3-0.3l-2.5-0.6
		c-0.3-0.1-0.7-0.1-1,0l-2.5,0.7l-3,0.5l-3,0.1l-3-0.1l-2.3-0.1c-0.5,0-1-0.2-1.3-0.5l-2.1-2c-0.2-0.2-0.4-0.5-0.5-0.7l-0.8-2
		c-0.7-1.8-3.2-1.7-3.8,0.1l-0.9,3.2c-0.2,0.8-1,1.4-1.9,1.4h-1.6l-2.6,0.3c-0.3,0-0.6,0-0.9-0.1l-2-0.7c-0.4-0.1-0.8-0.2-1.2-0.1
		l-1.9,0.5c-0.3,0.1-0.7,0.1-1,0l-2-0.5c-0.3-0.1-0.7-0.1-1,0l-2.5,0.7l-2.5,0.4c-0.3,0-0.7,0-1-0.1l-1.9-0.7
		c-0.4-0.1-0.8-0.2-1.3,0l-0.7,0.2c-1,0.3-2-0.2-2.4-1.1l-2.2-5c-0.1-0.2-0.1-0.4-0.2-0.5l-2.1-16.2c-0.2-1.4-2.1-1.5-2.4-0.1
		c-0.3,1.3-2.2,1.2-2.4-0.1l-0.6-3.6c-0.3-2.1-3.3-2.3-3.9-0.2l-0.6,2.4l-2.9,7.1c-0.1,0.3-0.3,0.5-0.5,0.7l-1.2,1.2
		c-0.8,0.8-2.1,0.7-2.8-0.1l-0.8-0.8c-0.5-0.6-1.4-0.8-2.1-0.5l-1.6,0.6c-0.1,0-0.2,0.1-0.3,0.1l-2.2,0.4c-0.4,0.1-0.9,0-1.3-0.2
		l-2-1c-0.3-0.1-0.5-0.4-0.7-0.6l-2.5-3.6c-0.2-0.2-0.4-0.4-0.6-0.6l-2.5-1.5c-0.1-0.1-0.2-0.1-0.4-0.2l-0.9-0.3
		c-1.1-0.4-2.2,0.2-2.6,1.3l-1.8,5.5c-0.3,1.1-1.5,1.7-2.6,1.3L258,56c-0.3-0.1-0.7-0.2-1-0.1l-2.1,0.3c-0.2,0-0.5,0-0.7,0l-2.3-0.5
		c-0.2-0.1-0.5-0.2-0.7-0.3l-2.5-1.7c-0.2-0.1-0.3-0.3-0.4-0.4l-2.7-3.4c-0.1-0.1-0.2-0.3-0.3-0.4l-1.8-4c-0.6-1.3-2.2-1.6-3.2-0.6
		l-0.7,0.7c-0.2,0.2-0.3,0.3-0.4,0.5l-2.8,5.5c-0.1,0.1-0.1,0.2-0.2,0.3l-0.2,0.3c-1.1,1.3-3.2,0.8-3.5-0.9l-1.5-7.6
		c-0.3-1.5-2.1-2.1-3.2-1.1c-0.3,0.3-0.5,0.6-0.6,1l-2.7,11c-0.1,0.5-0.5,1-1,1.3l-2,1.1c-0.2,0.1-0.4,0.2-0.7,0.2l-2.5,0.4
		c-0.1,0-0.2,0-0.4,0l-2.6-0.1c-0.2,0-0.4,0-0.5,0.1l-2.5,0.6c-0.2,0-0.4,0.1-0.5,0.1l-2.8-0.1l-2.7,0.1c-0.2,0-0.5,0-0.7-0.1
		l-1.1-0.3c-0.9-0.3-1.9,0.1-2.4,1l-2.3,4.3l-1.8,4c-0.6,1.3-2.2,1.6-3.2,0.6l-1-1l-0.9-0.7c-1.1-0.8-2.6-0.4-3.1,0.9l-1.3,3.5
		c-0.4,1-1.6,1.5-2.6,1.1l-0.4-0.2c-0.5-0.2-1-0.2-1.5,0l-1.7,0.7c-0.4,0.2-0.8,0.2-1.2,0.1L179,72c-0.2,0-0.3-0.1-0.5-0.1h-2.8
		l-3,0.3l-3,0.5l-2.4,0.4c-0.4,0.1-0.9,0-1.3-0.2l-2.4-1.2l-2.6-1.1c-0.3-0.1-0.6-0.3-0.8-0.6l-2.5-3.2c-0.1-0.2-0.3-0.3-0.4-0.4
		l-0.7-0.4c-1.1-0.7-2.6-0.3-3,1l-1.7,4.7c-0.3,0.7-0.9,1.2-1.6,1.3l-1.5,0.2c-0.2,0-0.4,0-0.6,0l-2.6-0.5c-0.1,0-0.2,0-0.3,0h-2.9
		H140c-0.4,0-0.8-0.1-1.1-0.3l-2-1.3c-0.3-0.2-0.7-0.3-1.1-0.3h-2.4h-3h-2.3c-0.5,0-0.9-0.2-1.3-0.5l-2.1-1.7
		c-0.2-0.2-0.5-0.3-0.8-0.4l-1.7-0.4c-0.5-0.1-1-0.5-1.3-1l-0.5-0.9c-0.8-1.5-3-1.3-3.6,0.3l-1.1,2.9c-0.3,0.7-0.8,1.2-1.6,1.3
		l-1.7,0.3c-0.1,0-0.3,0-0.4,0l-2.3-0.1c-0.4,0-0.7,0.1-1,0.2l-2,1c-0.4,0.2-0.8,0.3-1.3,0.2l-2.1-0.4c-0.2,0-0.3,0-0.5,0l-2.6,0.2
		c-0.1,0-0.2,0-0.3,0.1L97,72.6l-2.8,0.6c-0.1,0-0.3,0-0.4,0H91l-2-0.1c-0.7,0-1.3-0.4-1.6-1L85,68c-0.1-0.1-0.2-0.2-0.3-0.4
		L84,67.3c-1-1.1-2.8-0.7-3.3,0.7l-1.3,3.5C79,72.5,78,73,77,72.7l-1-0.3c-0.2-0.1-0.4-0.1-0.7-0.1l-2.7,0.2l-3,0.1h-2.8
		c-0.1,0-0.3,0-0.4,0l-2.3-0.5c-0.3-0.1-0.7-0.1-1,0l-2.4,0.7c-0.1,0-0.2,0.1-0.3,0.1l-2.6,0.3c-0.2,0-0.3,0-0.5,0l-2.8-0.4l-3-0.1
		l-1.3,0.1c-1,0.1-1.9-0.6-2.1-1.5l-0.7-3c-0.5-2.1-3.4-2.1-3.9,0l-0.7,3.3c-0.2,0.9-1,1.6-1.9,1.6h-1.4l-3-0.3l-3,0.1l-3-0.1
		l-2.7-0.4c-0.2,0-0.4,0-0.6,0L24.5,73l-3,0.3l-3,0.2l-2.8-0.1c-0.1,0-0.3,0-0.4,0l-2-0.4c-0.7-0.2-1.3-0.7-1.5-1.5l-0.7-2.8
		C10.6,66.6,7.7,66.7,7.2,68.8z"/>
	<g id="baseline">
		<path class="st1" d="M465.7,95.4L1,97.2"/>
		<path class="st2" d="M3.2,95L469,98.2"/>
	</g>
	<path id="a" fill="none" d="M469,36.1c-1.4-4.7-4.9,0.8-6.2,2.5c0.5,0.4-6.8,4.2-6.8,4.5c-3.7,4.5-5.2-1.6-10.4,2.7
		c-1.3,0-2.8,0.2-3.9-0.3c-7.6-7.5-6,8.8-11.4,3.2c-0.6-2.3-2.6-6.1-4.7-2.6c-3.6,16.1-6.7-2.1-10.5,19c-3.5,6.3-6.4-11.2-8.9,2.7
		c-0.4,3.3-15.2,2.3-17.9,1.5c-5.4,1-9.7,6.2-12.8-1.4c-4.7-7.4-4.3,5.7-9.4,4.6c-2.9,0.2-6.4-0.8-9.2-1c-5.2,1.2-13.3,3.3-17.2-1.4
		c-1.8-5.3-5.3-4.9-6,0.6c-0.7,2.3-4.3,1.1-6.1,1.7c-4-0.9-8.5-1.2-12.5-0.2c-14.3,3.8-12.6-13.7-14.3-23c-0.2-1.4-2.1-1.5-2.4-0.1
		c-3.5,4.5-2.3-10.6-6.9-3.9c-2.2,6.1-3.1,15-10.9,10c-6.9,4.2-9-4.3-14.1-6.6c-7.6-1.7-0.3,9.9-11.6,7.6
		c-8.6,1.2-10-14.2-14.6-11.3c-1.1,0.5-3.3,5.7-3.9,6.7c-6.3,7.2-3.1-15.6-9.2-8c-1.4,4.8-1.8,15.3-9.3,14
		c-4.3-0.2-9.1,1.6-13.4,0.3c-5.3-0.9-4.8,15.4-10.7,8.9c-5.4-4.4-3.7,7.6-9.8,4.6c-3.4,1.7-7.6-0.2-11.3,0.8
		c-6.5,2.4-12.1-1.4-16.1-6.2c-5-2-2.7,8.8-8.4,7.2c-2.4-0.7-5.7-0.5-8.2-0.5c-2.2-0.6-4.1-2.6-6.6-1.9c-3,0.1-6.6,0.5-8.7-2.2
		c-1.5-0.8-3.8-0.6-4.3-2.7c-5.7-4.1-1.4,6.8-11.7,4.9c-3.4,2.2-7.9,0-11.7,1.8c-7.7,1.8-8.8,0.7-13-5.3c-2.6-2.5-4,2.4-4.6,4.2
		c-2.1,2.6-6.7,0.1-9.8,1.1c-4.1-0.5-8.2-0.2-12.3,0.6c-1.9-0.4-5.2-0.6-7.1-0.4c-3.8,0.3-2.3-10.4-6.7-4.5c0.3,7.7-8.2,4-13,4.6
		c-4.7-1-10,1.2-14.8,0.5c-2.8,0.3-4.5-2-4.6-4.7c-2.4-4.8-4.9,2.1-4.8,4.5c-0.4,2-3.4,1.1-3.3,3.4"/>
	<line x1="469.5" y1="-2.18557e-08" x2="469.5" y2="100" stroke="#FF7738" stroke-width="1.5" />
	<circle fill="#FFFFFF" stroke="#FF7738" stroke-width="1.5" r="4">
		<animateMotion dur="20s" repeatCount="indefinite"><mpath xlink:href="#a"/></animateMotion>
	</circle>
</svg>